<svg viewBox="0 0 400 300" fill="none" xmlns="http://www.w3.org/2000/svg"><path d="M144.024 237.091c-.718 0-1.364-.143-1.939-.428a3.595 3.595 0 0 1-1.382-1.174 3.2 3.2 0 0 1-.569-1.7h1.468c.057.566.314 1.035.771 1.406.46.367 1.011.551 1.651.551.514 0 .97-.121 1.37-.361.404-.241.72-.571.948-.991.232-.424.348-.903.348-1.437 0-.547-.12-1.034-.36-1.462a2.648 2.648 0 0 0-.979-1.021 2.762 2.762 0 0 0-1.425-.38 3.893 3.893 0 0 0-1.18.178 3.286 3.286 0 0 0-.997.458l-1.419-.171.758-6.165h6.508v1.346h-5.236l-.44 3.694h.073c.257-.204.579-.373.967-.508a3.677 3.677 0 0 1 1.211-.202c.766 0 1.449.184 2.049.551.603.363 1.076.86 1.418 1.492.347.632.52 1.354.52 2.165 0 .799-.179 1.513-.538 2.141a3.935 3.935 0 0 1-1.468 1.48c-.624.359-1.333.538-2.128.538Zm10.649 0c-.921 0-1.706-.251-2.354-.752-.649-.506-1.144-1.238-1.486-2.196-.343-.962-.514-2.124-.514-3.486 0-1.354.171-2.51.514-3.468.346-.962.844-1.696 1.492-2.201.652-.51 1.435-.765 2.348-.765.914 0 1.695.255 2.343.765.652.505 1.15 1.239 1.492 2.201.347.958.52 2.114.52 3.468 0 1.362-.171 2.524-.514 3.486-.342.958-.838 1.69-1.486 2.196-.648.501-1.433.752-2.355.752Zm0-1.345c.914 0 1.623-.441 2.129-1.321.505-.881.758-2.137.758-3.768 0-1.084-.116-2.008-.348-2.77-.229-.763-.559-1.344-.991-1.744a2.19 2.19 0 0 0-1.548-.599c-.905 0-1.612.447-2.122 1.339-.51.889-.764 2.147-.764 3.774 0 1.085.114 2.006.342 2.765.228.758.557 1.335.985 1.73.432.396.952.594 1.559.594Zm6.679 1.174v-1.101l4.135-4.526c.485-.53.884-.991 1.198-1.382.314-.396.547-.767.698-1.113.155-.351.232-.718.232-1.101 0-.44-.106-.822-.318-1.144a2.06 2.06 0 0 0-.856-.746 2.781 2.781 0 0 0-1.223-.263c-.482 0-.902.1-1.26.3-.355.195-.63.471-.826.825-.192.355-.288.771-.288 1.248h-1.443c0-.734.169-1.378.508-1.933a3.527 3.527 0 0 1 1.382-1.296c.587-.31 1.246-.465 1.975-.465.734 0 1.385.155 1.951.465.567.31 1.012.728 1.334 1.254.322.526.483 1.111.483 1.755 0 .461-.084.911-.251 1.352-.163.436-.448.923-.856 1.461-.404.534-.964 1.187-1.682 1.957l-2.813 3.01v.097h5.822v1.346h-7.902Zm17.743-9.369c.689 0 1.309-.5 1.309-1.292s-.62-1.292-1.309-1.292-1.292.5-1.292 1.292.603 1.292 1.292 1.292Zm0 8.439c.689 0 1.309-.517 1.309-1.292 0-.792-.62-1.309-1.309-1.309s-1.292.517-1.292 1.309c0 .775.603 1.292 1.292 1.292Zm11.66-4.754c.017-.689.034-1.36.034-1.946v-.947h2.601v2.893h-2.635Zm2.635-6.906v2.825h-2.601v-2.825h2.601Zm1.188-1.188h-4.96v6.148c0 2.532-.086 5.942-1.275 8.353.31.121.827.414 1.051.62.775-1.619 1.137-3.771 1.292-5.804h2.704v4.237c0 .241-.086.31-.327.327-.207.017-.931.017-1.723 0 .172.327.345.896.362 1.223 1.171 0 1.86-.017 2.291-.241.447-.224.585-.603.585-1.292v-13.571Zm7.871 7.044c-.396 1.464-.982 2.755-1.722 3.858-.793-1.137-1.413-2.446-1.878-3.858h3.6Zm.654-1.223-.223.034h-5.581v-4.615h4.823v2.101c0 .207-.069.275-.345.275-.258.018-1.154.018-2.204 0 .172.31.361.741.413 1.086 1.292 0 2.153 0 2.704-.173.517-.189.672-.516.672-1.171v-3.307h-7.268v15.053h1.205v-8.06h.431c.568 1.774 1.326 3.427 2.291 4.822-.793.93-1.688 1.671-2.636 2.187.259.224.586.655.758.948a10.057 10.057 0 0 0 2.601-2.205 10.45 10.45 0 0 0 2.79 2.325c.189-.31.534-.74.827-.981-1.085-.534-2.05-1.309-2.877-2.257 1.086-1.532 1.912-3.461 2.36-5.804l-.741-.258Zm3.996 3.117v1.137h11.953v-1.137h-11.953Zm11.522 0-.017.173c-.31 2.927-.689 4.236-1.137 4.615-.189.138-.396.155-.758.155-.43 0-1.55-.017-2.635-.12.224.327.396.809.414 1.154 1.033.069 2.066.069 2.583.051.637-.034 1.033-.12 1.395-.465.603-.534.982-1.86 1.378-4.994.034-.19.069-.569.069-.569h-1.292Zm-6.028-1.722c-.482 4.168-2.532 6.028-6.699 6.82.241.259.585.81.723 1.103 4.357-1.068 6.631-3.135 7.32-7.802l-1.344-.121Zm-2.135-6.131v1.119h8.353v-1.119h-8.353Zm8.043 0v.172c-2.084 3.134-7.682 4.753-12.797 5.236.207.292.431.809.517 1.136 5.322-.62 11.057-2.342 13.554-6.062l-.792-.534-.224.052h-.258Zm-8.061 1.309-1.067.447c2.17 2.842 6.338 4.168 11.367 4.582.155-.362.465-.861.723-1.154-4.977-.293-9.145-1.447-11.023-3.875Zm1.068-3.1c-.895 1.515-2.601 3.272-5.029 4.529.258.19.637.655.81.965 2.617-1.464 4.409-3.359 5.563-5.236l-1.344-.258Zm24.594 4.512h-3.22v-2.635h3.22v2.635Zm1.206-3.686h-5.58v4.719h5.58v-4.719Zm-4.616 13.262v-2.739h3.135v2.739h-3.135Zm-3.927 0h-3.083v-2.739h3.083v2.739Zm-.137-9.576h-3.187v-2.635h3.187v2.635Zm9.817 3.496v-1.154h-8.043c.292-.43.551-.895.775-1.378l-1.24-.396-.104.224v-4.478h-5.546v4.719h5.426a7.207 7.207 0 0 1-.879 1.309h-5.718v1.154h4.599c-1.326 1.154-3.049 2.05-5.029 2.704.241.224.637.689.792.965.362-.121.723-.259 1.068-.414v4.564h1.136v-.637h3.083v.586h1.189V232.7h-3.359a12.54 12.54 0 0 0 2.877-2.256h2.6c.724.861 1.688 1.619 2.773 2.256h-3.29v5.563h1.137v-.637h3.135v.586h1.188v-4.478c.362.137.741.258 1.102.361.19-.31.534-.775.81-1.033-1.964-.465-3.944-1.429-5.253-2.618h4.771Zm4.099 2.842c.051-.62.086-1.223.086-1.774h3.22v1.774h-3.306Zm3.306-4.495v1.688h-3.22v-1.688h3.22Zm1.206-1.085h-5.597v3.651c0 1.843-.155 4.323-1.464 6.131.241.121.723.551.912.81.844-1.12 1.275-2.566 1.499-3.961h3.444v2.325c0 .223-.086.292-.292.31-.207 0-.93 0-1.705-.018.172.31.361.793.396 1.12 1.102 0 1.791-.017 2.221-.224.431-.189.586-.534.586-1.154v-8.99Zm2.928 5.614c.034-.516.052-1.016.052-1.481v-.327h3.479v1.808h-3.531Zm3.531-4.529v1.688h-3.479v-1.688h3.479Zm1.222-1.085h-5.873v4.133c0 1.757-.155 4.03-1.481 5.666.241.138.724.586.913.827.913-1.102 1.361-2.549 1.567-3.961h3.652v2.308c0 .224-.087.275-.328.293-.189.017-.947.017-1.791 0 .19.31.379.809.431 1.136 1.154 0 1.86-.017 2.308-.206.465-.207.602-.552.602-1.223v-8.973Zm-1.274-4.564v2.273h-4.874v-2.911h-1.275v2.911h-4.701v-2.273h-1.258v3.444h13.417v-3.444h-1.309Zm17.395.62-.276.086h-12.245v1.257h11.091c-1.085 1.12-2.583 2.377-4.012 3.238h-.844v8.215c0 .31-.121.414-.5.431-.379.017-1.722.017-3.134-.035.206.362.465.913.516 1.275 1.757 0 2.894 0 3.548-.19.655-.206.896-.602.896-1.464v-7.113c2.101-1.205 4.46-3.186 5.959-4.977l-.999-.723Z" fill="#000"/><path d="M271.3 136.899h1.5" stroke="#0C296E" stroke-width=".5" stroke-linecap="round" stroke-linejoin="round"/><path d="M275.9 136.899h29.2" stroke="#0C296E" stroke-width=".5" stroke-linecap="round" stroke-linejoin="round" stroke-dasharray="3.07 3.07"/><path d="M306.6 136.899h1.6v1.5" stroke="#0C296E" stroke-width=".5" stroke-linecap="round" stroke-linejoin="round"/><path d="M308.2 141.399v45.8" stroke="#0C296E" stroke-width=".5" stroke-linecap="round" stroke-linejoin="round" stroke-dasharray="2.96 2.96"/><path d="M308.2 188.699v1.5h-1.6" stroke="#0C296E" stroke-width=".5" stroke-linecap="round" stroke-linejoin="round"/><path d="M304 190.199h-9.4" stroke="#0C296E" stroke-width=".5" stroke-linecap="round" stroke-linejoin="round" stroke-dasharray="2.69 2.69"/><path d="M293.2 190.199h-1.5" stroke="#0C296E" stroke-width=".5" stroke-linecap="round" stroke-linejoin="round"/><path d="M206.8 191.3c7.5 8.4 22.8 9.8 25.1 2.9 2.3-6.9-11.8-6.1-6.1 3.2 5.8 9.2 37.8 2 37.8 2" stroke="#0C296E" stroke-width=".5" stroke-miterlimit="10" stroke-linecap="round" stroke-linejoin="round" stroke-dasharray="3.03 3.03"/><path d="M103.9 141.699c-3.9 2.8-32.7 23 15.8 38.8 48.5 15.8-14.5 32.3 18.2 49.6" stroke="#0C296E" stroke-miterlimit="10" stroke-linecap="round" stroke-linejoin="round"/><path d="m111.8 128.899 9.7-6.4c.4-.3 1-.2 1.2.3l1 1.5c.3.4.2 1-.3 1.2l-9.7 6.4-1.9-3ZM117 136.899l9.7-6.4c.4-.3 1-.2 1.2.3l1 1.5c.3.4.2 1-.3 1.2l-9.7 6.4-1.9-3Z" fill="#fff" stroke="#0C296E" stroke-width=".5" stroke-miterlimit="10" stroke-linecap="round" stroke-linejoin="round"/><path d="M102.6 142.8c-3.4-5.2-2-12.3 3.3-15.7l5.8-3.8c.5-.3 1.1-.2 1.5.3l11.3 17.2c.3.5.2 1.1-.3 1.4l-5.8 3.8c-5.4 3.4-12.4 2-15.8-3.2Z" fill="#00D6B9"/><path d="m123.3 142.699-12.4-19 2.4-1.6c.4-.2.9-.1 1.1.2l11.6 17.7c.2.4.1.9-.2 1.1l-2.5 1.6Z" fill="#fff" stroke="#0C296E" stroke-width=".5" stroke-miterlimit="10" stroke-linecap="round" stroke-linejoin="round"/><path d="m125.1 106.399 1.1 7M134.5 107.199l-2.4 6.1M114.8 111.3l6.8 4.2M126.1 164.999l-1.8-6.8M116.7 165.199l1.7-6.3M135.8 159l-7.2-3.4" stroke="#0C296E" stroke-miterlimit="10" stroke-linecap="round" stroke-linejoin="round"/><path d="M286.7 115.2v1.8M286.7 118.9v1.8M284 118h1.8M287.7 118h1.8M114.7 61.2V63M114.7 64.9v1.8M111.9 64h1.8M115.6 64h1.9" stroke="#0C296E" stroke-width=".5" stroke-miterlimit="10" stroke-linecap="round" stroke-linejoin="round"/><path d="M119.5 91.3a1.4 1.4 0 1 0 0-2.8 1.4 1.4 0 0 0 0 2.8ZM183.2 191.8a1.2 1.2 0 1 0 0-2.4 1.2 1.2 0 0 0 0 2.4Z" fill="#fff" stroke="#0C296E" stroke-width=".5" stroke-miterlimit="10" stroke-linecap="round" stroke-linejoin="round"/><path d="M261.4 66.3H148.3V169h113.1V66.3Z" fill="#0C296E"/><path d="M271.6 160.399H138.1v23.4h133.5v-23.4Z" fill="#fff" stroke="#0C296E" stroke-width=".5" stroke-miterlimit="10"/><path d="M149.3 174.899a3.1 3.1 0 1 0 0-6.2 3.1 3.1 0 0 0 0 6.2Z" fill="#00D6B9"/><path d="M161.5 174.899a3.1 3.1 0 1 0 0-6.2 3.1 3.1 0 0 0 0 6.2Z" fill="#FFC60A"/><path d="M173.8 174.899a3.1 3.1 0 1 0 0-6.2 3.1 3.1 0 0 0 0 6.2Z" fill="#00D6B9"/><path d="M250.3 169.3h-56.2v5.8h56.2v-5.8Z" fill="#fff" stroke="#0C296E" stroke-width=".5" stroke-miterlimit="10"/><path d="M238.2 175.6a3.5 3.5 0 1 0 0-7 3.5 3.5 0 0 0 0 7Z" fill="#fff" stroke="#0C296E" stroke-width=".5" stroke-miterlimit="10"/><path d="M267.2 164.399h-9.3v1.2h9.3v-1.2ZM267.2 166.999h-9.3v1.2h9.3v-1.2ZM267.2 169.6h-9.3v1.2h9.3v-1.2Z" fill="#0C296E"/><path d="M271.6 127.2H138.1v23.4h133.5v-23.4Z" fill="#fff" stroke="#0C296E" stroke-width=".5" stroke-miterlimit="10"/><path d="M149.3 141.7a3.1 3.1 0 1 0 0-6.2 3.1 3.1 0 0 0 0 6.2Z" fill="#00D6B9"/><path d="M161.5 141.7a3.1 3.1 0 1 0 0-6.2 3.1 3.1 0 0 0 0 6.2Z" fill="#FFC60A"/><path d="M173.8 141.7a3.1 3.1 0 1 0 0-6.2 3.1 3.1 0 0 0 0 6.2Z" fill="#00D6B9"/><path d="M250.3 136h-56.2v5.8h56.2V136Z" fill="#fff" stroke="#0C296E" stroke-width=".5" stroke-miterlimit="10"/><path d="M238.2 142.4a3.5 3.5 0 1 0 0-7 3.5 3.5 0 0 0 0 7Z" fill="#fff" stroke="#0C296E" stroke-width=".5" stroke-miterlimit="10"/><path d="M267.2 131.2h-9.3v1.2h9.3v-1.2ZM267.2 133.8h-9.3v1.2h9.3v-1.2ZM267.2 136.4h-9.3v1.2h9.3v-1.2Z" fill="#0C296E"/><path d="M271.6 94H138.1v23.4h133.5V94Z" fill="#fff" stroke="#0C296E" stroke-width=".5" stroke-miterlimit="10"/><path d="M149.3 108.4a3.1 3.1 0 1 0 0-6.2 3.1 3.1 0 0 0 0 6.2Z" fill="#00D6B9"/><path d="M161.5 108.4a3.1 3.1 0 1 0 0-6.2 3.1 3.1 0 0 0 0 6.2Z" fill="#FFC60A"/><path d="M173.8 108.4a3.1 3.1 0 1 0 0-6.2 3.1 3.1 0 0 0 0 6.2Z" fill="#00D6B9"/><path d="M250.3 102.8h-56.2v5.8h56.2v-5.8Z" fill="#fff" stroke="#0C296E" stroke-width=".5" stroke-miterlimit="10"/><path d="M238.2 109.2a3.5 3.5 0 1 0 0-7 3.5 3.5 0 0 0 0 7Z" fill="#fff" stroke="#0C296E" stroke-width=".5" stroke-miterlimit="10"/><path d="M267.2 97.9h-9.3v1.2h9.3v-1.2ZM267.2 100.5h-9.3v1.2h9.3v-1.2ZM267.2 103.101h-9.3v1.2h9.3v-1.2Z" fill="#0C296E"/><path d="M271.6 60.8H138.1v23.4h133.5V60.8Z" fill="#fff" stroke="#0C296E" stroke-width=".5" stroke-miterlimit="10"/><path d="M149.3 75.2a3.1 3.1 0 1 0 0-6.2 3.1 3.1 0 0 0 0 6.2Z" fill="#00D6B9"/><path d="M161.5 75.2a3.1 3.1 0 1 0 0-6.2 3.1 3.1 0 0 0 0 6.2Z" fill="#FFC60A"/><path d="M173.8 75.2a3.1 3.1 0 1 0 0-6.2 3.1 3.1 0 0 0 0 6.2Z" fill="#00D6B9"/><path d="M250.3 69.6h-56.2v5.8h56.2v-5.8Z" fill="#fff" stroke="#0C296E" stroke-width=".5" stroke-miterlimit="10"/><path d="M238.2 76a3.5 3.5 0 1 0 0-7 3.5 3.5 0 0 0 0 7Z" fill="#fff" stroke="#0C296E" stroke-width=".5" stroke-miterlimit="10"/><path d="M267.2 64.7h-9.3v1.2h9.3v-1.2ZM267.2 67.3h-9.3v1.2h9.3v-1.2ZM267.2 69.9h-9.3v1.2h9.3v-1.2Z" fill="#0C296E"/><path d="m280.8 167.599-16.3 28.2c-.4.6.1 1.4.8 1.4h32.5c.7 0 1.1-.8.8-1.4l-16.3-28.2c-.3-.6-1.2-.6-1.5 0Z" fill="#FF950A"/><path d="m266.8 194.899 14.3-24.8c.2-.3.6-.3.8 0l14.3 24.8c.2.3 0 .7-.4.7h-28.7c-.2 0-.4-.4-.3-.7Z" fill="#FFC60A"/><path d="M282.7 188.6h-2.2l-.4-10.8c0-.8.6-1.5 1.5-1.5.8 0 1.5.7 1.5 1.5l-.4 10.8ZM281.6 193.3a1.4 1.4 0 1 0 0-2.8 1.4 1.4 0 0 0 0 2.8Z" fill="#fff"/></svg>