<svg viewBox="0 0 400 300" fill="none" xmlns="http://www.w3.org/2000/svg"><path d="M169.243 231.78c-.862.228-1.758.472-2.604.7v-6.607h2.36v-1.156h-5.924v1.156h2.376v6.932c-.992.244-1.887.472-2.604.635l.31 1.237a364.175 364.175 0 0 0 6.233-1.774l-.147-1.123Zm3.792-5.289c.032-1.107.049-2.246.049-3.418h-1.205c0 1.188-.016 2.328-.048 3.418h-2.718v1.172h2.669c-.244 3.938-1.139 7.225-4.589 9.064.292.212.699.651.862.96 3.711-2.083 4.654-5.712 4.915-10.024h3.255c-.245 5.761-.505 7.941-.961 8.462-.179.195-.374.244-.683.244-.358 0-1.286 0-2.278-.097.211.341.358.846.374 1.187.911.066 1.871.082 2.392.033.57-.065.895-.195 1.253-.635.619-.748.83-3.075 1.091-9.748.016-.162.016-.618.016-.618h-4.394Zm19.122 3.401c1.285 0 1.66-.521 1.806-2.49-.358-.081-.846-.276-1.107-.472-.065 1.611-.179 1.872-.797 1.872h-2.588c-.732 0-.862-.098-.862-.619v-1.643c1.562-.456 3.287-1.042 4.573-1.644l-.814-.879c-.927.489-2.376 1.074-3.759 1.53v-2.718h-1.188v5.371c0 1.334.407 1.692 1.953 1.692h2.783Zm-10.888 3.515v-1.497h3.434v1.497h-3.434Zm3.434-3.84v1.399h-3.434v-1.399h3.434Zm1.188-1.009h-5.744v9.081h1.122v-3.304h3.434v1.92c0 .212-.049.261-.26.261-.228.016-.912.032-1.676 0 .162.293.325.781.39 1.09 1.025 0 1.725-.016 2.181-.195.439-.196.553-.537.553-1.139v-7.714Zm-2.002-4.231c.375.504.749 1.09 1.091 1.676l-3.336.146c.504-.927 1.025-2.067 1.464-3.059l-1.22-.293a25.615 25.615 0 0 1-1.497 3.401c-.456.016-.863.033-1.237.049l.114 1.139c1.66-.098 4.003-.212 6.281-.342.179.358.326.684.424.96l1.025-.455c-.342-.993-1.27-2.49-2.116-3.613l-.993.391Zm5.631 12.124c-.765 0-.911-.098-.911-.635v-1.888c1.644-.472 3.499-1.09 4.752-1.806l-.798-.912c-.927.602-2.473 1.237-3.954 1.709v-2.571h-1.188v5.468c0 1.334.423 1.692 1.969 1.692h2.897c1.35 0 1.709-.569 1.871-2.75a3.224 3.224 0 0 1-1.09-.456c-.081 1.823-.195 2.149-.879 2.149h-2.669Zm20.619-7.128h-3.499v-6.201h-1.22v6.201h-4.948v-3.987c1.205-.391 2.328-.814 3.239-1.286l-.911-.993c-1.611.977-4.476 1.872-7.047 2.474a3.1 3.1 0 0 1 .439.976 62.16 62.16 0 0 0 3.093-.797v3.613h-3.662v1.171h3.645c-.13 2.327-.797 4.606-3.808 6.298.261.196.684.635.863.912 3.303-1.888 4.003-4.525 4.133-7.21h4.964v7.177h1.22v-7.177h3.499v-1.171Zm9.211-5.094c-.163 5.566-.7 10.057-3.011 12.791.293.163.863.537 1.075.732 2.327-3.027 2.896-7.534 3.157-13.474l-1.221-.049Zm-1.855-.423v1.155h6.428v-1.155h-6.428Zm5.354 4.443-.358 1.09h2.685v-1.09h-2.327Zm1.985 0v.26c-.846 4.231-3.206 6.933-6.2 8.316.26.195.7.651.863.927 3.043-1.529 5.549-4.491 6.558-9.243l-.749-.309-.228.049h-.244Zm-4.589-.196-1.041.309c1.236 4.118 3.466 7.682 6.672 9.342.195-.31.569-.765.846-.993-3.108-1.448-5.37-4.882-6.477-8.658Zm3.157-4.247c-.39 1.741-1.041 4.084-1.546 5.533h1.221c.439-1.4 1.106-3.711 1.578-5.533h-1.253Zm-11.408 9.732c0-.245.83-.619.83-.619v-.016c1.595-1.611 3.223-3.857 4.557-6.119l-1.025-.619c-1.156 2.246-2.93 4.573-3.483 5.176-.521.602-.911 1.025-1.269 1.09.146.309.325.862.39 1.107Zm0 0c.358-.261.912-.472 5.241-1.758a5.348 5.348 0 0 1-.066-1.042l-4.686 1.302-.586.472.097 1.026Zm-.097-3.988c0-.244.732-.634.732-.634v-.033c1.188-1.481 2.392-3.58 3.271-5.614l-1.139-.537c-.7 1.985-1.92 4.101-2.295 4.654-.374.553-.667.944-.96 1.009.13.325.326.895.391 1.155Zm0 0c.276-.13.732-.244 3.515-.602 0-.244.032-.699.097-1.009l-3.059.326-.586.374.033.911Zm-.228 5.957.309 1.204c1.53-.586 3.564-1.367 5.484-2.116l-.227-1.074c-2.051.765-4.167 1.546-5.566 1.986Z" fill="#000"/><path d="M166.7 83.5c.3-.9.4-1.8.3-2.7-.2-3.3-2.8-6.2-6.3-7-1.2-.3-2.3-.3-3.4-.1-.6-3.4-3.8-6.1-7.7-6.1-4.1 0-7.4 2.8-7.8 6.5-.8-.1-1.6-.1-2.4 0-3.8.5-6.8 3.5-7 7.1 0 .6 0 1.2.1 1.8.3 1.8 1.9 3.1 3.8 3.1H163c1.7 0 3.2-1.1 3.7-2.6Z" fill="#FFC60A"/><path d="m152.8 78.4-3.2-5.5-3.1 5.6h1.8v4.6l2.8-.1-.1-4.6h1.8Z" fill="#fff"/><path d="M257.1 98.7h-27.2v97.5H165V98.7h-27.2l61-46.2 58.3 46.2ZM246 198.4h-97.1v12.2H246v-12.2Z" fill="#fff" stroke="#0C296E" stroke-width=".5" stroke-miterlimit="10" stroke-linecap="round" stroke-linejoin="round"/><path d="M246 186.4h-97.1v12.2H246v-12.2Z" fill="#fff" stroke="#0C296E" stroke-width=".5" stroke-miterlimit="10" stroke-linecap="round" stroke-linejoin="round"/><path d="M245.8 196h-97.1v5.3h97.1V196Z" fill="#0C296E"/><path d="M181 146.5v11.7M196.7 131v38.5M206.4 164.8v11.7M214.6 153.9v10.9" stroke="#0C296E" stroke-width=".569" stroke-miterlimit="10" stroke-linecap="round" stroke-linejoin="round"/><path d="M222.3 98.6c0 4.3-1.2 8.3-3.2 11.7-1.7 2.8-4 5.2-6.7 7-.8.5-1.5 1-2.4 1.4-2.6 1.3-5.4 2.2-8.4 2.4-.7.1-1.3.1-2 .1-6.5 0-12.3-2.7-16.4-7.1-1.7-1.8-3.1-3.8-4.1-6.1-.7-1.6-1.3-3.3-1.7-5.1-.2-1.2-.4-2.5-.4-3.8v-.7c0-12.5 10.2-22.7 22.7-22.7 12.5.3 22.6 10.4 22.6 22.9Z" fill="#00D6B9"/><path d="M192.9 91.2a4.1 4.1 0 1 0 0-8.2 4.1 4.1 0 0 0 0 8.2ZM210.1 91.9a2 2 0 1 0 0-3.999 2 2 0 0 0 0 4ZM198.3 109.9a2 2 0 1 0 .001-3.999 2 2 0 0 0-.001 3.999ZM219.1 110.3c-1.7 2.8-4 5.2-6.7 7h-.3c-.9-.9-1.4-2.1-1.4-3.5 0-2.7 2.2-5 5-5 1.3.1 2.5.7 3.4 1.5ZM187.6 108.2c0 2.8-1.8 5.2-4.4 6.1-1.7-1.8-3.1-3.8-4.1-6.1-.7-1.6-1.3-3.3-1.7-5.1 1.1-.8 2.4-1.3 3.8-1.3 3.6 0 6.4 2.9 6.4 6.4Z" fill="#fff"/><path d="M219.5 87.5c7.8-1.2 12.8-1.2 13.3.5.8 2.9-13.2 9.5-31.4 14.8-18.2 5.3-33.6 7.3-34.4 4.4-.5-1.5 3.4-4.2 9.9-7.1" stroke="#0C296E" stroke-width=".5" stroke-miterlimit="10" stroke-linecap="round" stroke-linejoin="round"/><path d="m173.1 89.8-.7 1.3h1.5l-.8-1.3ZM220.6 78.1l-1 1.7h2l-1-1.7ZM176.3 104.801l-.5-.5h-.7l.5-.5v-.7l.5.5h.7l-.5.5v.7ZM224 99.4l-.1-.8-.7-.4.8-.1.4-.7.2.8.6.4-.8.1-.4.7ZM205.9 73.4l.4 1 1 .3-1 .4-.4 1-.4-1-1-.4 1-.3.4-1ZM228.1 90.7a.8.8 0 1 0 0-1.6.8.8 0 0 0 0 1.6Z" fill="#00D6B9"/><path d="M236.5 177.6c8.56 0 15.5-6.94 15.5-15.5 0-8.561-6.94-15.5-15.5-15.5-8.56 0-15.5 6.939-15.5 15.5 0 8.56 6.94 15.5 15.5 15.5Z" fill="#FFC60A"/><path d="m241.5 162.799-5-8.6-5 8.7 2.9-.1v7.2h4.4l-.1-7.2h2.8Z" fill="#fff"/><path d="m145.5 109.301.6 1.5 1.6.6-1.6.6-.6 1.6-.6-1.6-1.6-.6 1.6-.6.6-1.5ZM232.5 125.4l.4 1.3 1.3.4-1.3.5-.4 1.2-.5-1.2-1.2-.5 1.2-.4.5-1.3ZM240.6 75.4l.6 1.5 1.4.5-1.4.5-.6 1.5-.5-1.5-1.4-.5 1.4-.5.5-1.5ZM157.9 140.8a1.5 1.5 0 1 0-.001-3.001 1.5 1.5 0 0 0 .001 3.001ZM246.8 106.4a1.1 1.1 0 1 0 .001-2.199 1.1 1.1 0 0 0-.001 2.199Z" fill="#fff" stroke="#0C296E" stroke-width=".5" stroke-miterlimit="10" stroke-linecap="round" stroke-linejoin="round"/></svg>