<svg viewBox="0 0 400 300" fill="none" xmlns="http://www.w3.org/2000/svg"><path d="m168.602 230.234-1.046.327c1.666 4.018 4.753 6.632 9.392 7.644.163-.326.506-.833.768-1.078-4.541-.882-7.644-3.315-9.114-6.893Zm5.831-.457v.212c-1.225 3.937-4.737 6.224-8.559 7.155.245.261.539.735.67 1.045 4.083-1.111 7.725-3.495 9.212-8.085l-.833-.376-.245.049h-.245Zm-6.191 0-.343 1.176h6.73v-1.176h-6.387Zm1.127-6.697c-.718 5.815-2.58 10.225-6.909 12.839.294.228.735.686.915.947 4.606-2.826 6.517-7.383 7.35-13.573l-1.356-.213Zm3.577.866c.719.768 1.634 1.813 2.091 2.434l.98-.67c-.457-.604-1.405-1.617-2.107-2.336l-.964.572Zm-8.624 4.361c0-.294.98-.702.98-.702v-.017c.556-.914 1.209-2.368 1.617-3.756l-1.323-.229c-.261 1.258-.898 2.564-1.078 2.907-.196.36-.392.588-.604.654.13.294.326.882.408 1.143Zm0 0c.163-.18.702-.278 1.732-.278h11.106v-1.176h-12.021l-.817.49v.964Zm29.303-1.454v-1.176h-8.314c.278-.735.555-1.47.784-2.205l-1.258-.294a18.85 18.85 0 0 1-.865 2.499h-4.623v1.176h4.1c-1.094 2.156-2.597 4.165-4.574 5.505.245.261.556.719.719 1.013a12.763 12.763 0 0 0 2.369-2.124v5.358h1.208v-5.636h3.463v7.155h1.209v-7.155h3.675v4.068c0 .228-.082.294-.36.31-.245 0-1.192.016-2.237-.016.163.326.343.767.392 1.094 1.404.016 2.27 0 2.76-.196.506-.18.653-.523.653-1.176v-5.227h-4.883v-2.189h-1.209v2.189h-3.561a19.717 19.717 0 0 0 1.715-2.973h8.837Zm14.945-3.609c-1.846.62-5.178 1.127-7.987 1.421.131.261.294.718.343 1.012 2.858-.261 6.288-.751 8.51-1.453l-.866-.98Zm-7.987 4.916v1.176h9.702v-1.176h-9.702Zm.849 3.904v6.092h1.225v-4.965h5.423v4.9h1.258v-6.027h-7.906Zm.67 4.312v1.127h6.55v-1.127h-6.55Zm2.646-11.793v8.134h1.225v-8.134h-1.225Zm-8.51-.261c.833.735 1.879 1.78 2.369 2.433l.849-.882c-.523-.637-1.584-1.617-2.417-2.303l-.801.752Zm1.209 13.393c.261-.343.702-.686 3.479-2.874a8.828 8.828 0 0 1-.474-1.029l-2.94 2.237-.294.507.229 1.159Zm-2.107-9.457v1.192h2.891v-1.192h-2.891Zm2.107 9.457c0-.49 1.323-1.568 1.323-1.568v-7.889h-1.16v6.877c0 .784-.555 1.372-.865 1.6.212.229.588.703.702.98Zm16.383-10.911h3.348v1.242h-3.348v-1.242Zm0-2.09h3.348v1.225h-3.348v-1.225Zm-1.095-.882v5.128h5.586v-5.128h-5.586Zm-.98 6.337v.947h7.399v-.947h-7.399Zm7.367-6.288v1.012h7.448v-1.012h-7.448Zm-4.051 6.598v5.587l1.062.637v-6.224h-1.062Zm.49 2.402v.931h3.283v-.931h-3.283Zm6.68-8.657c-.147.702-.457 1.715-.702 2.384l.98.245c.294-.62.637-1.535.964-2.384l-1.242-.245Zm-8.542 9.392-.751.277c1.323 3.381 3.936 3.92 8.036 3.92h5.276c.049-.326.261-.8.441-1.061-.948.032-4.966.032-5.701.032-3.626 0-6.158-.359-7.301-3.168Zm6.076-7.155v6.877h1.045v-5.946h3.872v5.897h1.078v-6.828h-5.995Zm-6.795 5.472c-.081 2.352-.375 4.312-1.47 5.586.245.147.703.458.882.605 1.111-1.421 1.519-3.496 1.634-6.125l-1.046-.066Zm9.327-3.74c-.098 4.247-.441 6.321-3.871 7.415.228.18.49.572.604.801 3.724-1.225 4.198-3.61 4.312-8.216h-1.045Zm.571 5.635c1.029.735 2.287 1.813 2.924 2.499l.735-.751c-.637-.686-1.927-1.715-2.94-2.401l-.719.653Z" fill="#000"/><path d="M217.8 124h-78v88.1h78V124Z" fill="#fff" stroke="#0C296E" stroke-width=".5" stroke-miterlimit="10" stroke-linecap="round" stroke-linejoin="round"/><path d="M261.7 124h-44.1v88.1h44.1V124Z" fill="#fff" stroke="#0C296E" stroke-width=".5" stroke-miterlimit="10" stroke-linecap="round" stroke-linejoin="round"/><path d="m217.6 124.3-8.3 22.3h-69.5v-22.3h77.8ZM261.7 124.3v22.3h-33l-10.9-22.3h43.9Z" fill="#0C296E"/><path d="M204.7 143.2H126l13-19.4h78.6l-12.9 19.4ZM276.6 143.2H232l-14.3-19.4h44.6l14.3 19.4Z" fill="#fff" stroke="#0C296E" stroke-width=".5" stroke-miterlimit="10" stroke-linecap="round" stroke-linejoin="round"/><path d="M178.8 192.1c11.211 0 20.3-9.089 20.3-20.3s-9.089-20.3-20.3-20.3-20.3 9.089-20.3 20.3 9.089 20.3 20.3 20.3Z" fill="#FFC60A"/><path d="M169.9 175.4v6.2h17.9v-6.2" stroke="#fff" stroke-width="1.86" stroke-miterlimit="10" stroke-linecap="round" stroke-linejoin="round"/><path d="M178.8 167.1v9.5M173.8 167l5-5 5.1 5" stroke="#fff" stroke-width="2.119" stroke-miterlimit="10" stroke-linecap="round" stroke-linejoin="round"/><path d="M223.4 71.6v17.8c0 8.4-6.9 15.3-15.4 15.3h-33.9l-8.1 8.8.4-10.6c-4.9-2.6-8.2-7.7-8.2-13.6V71.6c0-8.4 6.9-15.3 15.4-15.3h34.5c5 0 9.5 2.4 12.3 6.2 1.9 2.5 3 5.6 3 9.1Z" fill="#fff" stroke="#0C296E" stroke-width=".5" stroke-miterlimit="10"/><path d="M223.4 71.6v17.8c0 8.4-6.9 15.299-15.4 15.299h-33.8v-23.8c0-10.2 8.3-18.5 18.5-18.5h27.7c1.9 2.6 3 5.7 3 9.2Z" fill="#0C296E"/><path d="M244.3 82v17.8c0 5.9-3.3 11-8.2 13.6l.4 10.6-8.1-8.8h-33.9c-8.4 0-15.4-6.9-15.4-15.4V82c0-8.4 6.9-15.4 15.4-15.4H229c8.4.1 15.3 7 15.3 15.4Z" fill="#00D6B9"/><path d="M197.2 86.1h28.4" stroke="#fff" stroke-width="3.136" stroke-miterlimit="10" stroke-linecap="round" stroke-linejoin="round"/><path d="M196.6 96.1h30.1" stroke="#fff" stroke-width="3.228" stroke-miterlimit="10" stroke-linecap="round" stroke-linejoin="round"/><path d="m207.3 75.6-2.5 31M218.6 75.6l-2.5 31" stroke="#fff" stroke-width="3.192" stroke-miterlimit="10" stroke-linecap="round" stroke-linejoin="round"/><path d="M246 112a1.7 1.7 0 1 0-.001-3.401A1.7 1.7 0 0 0 246 112ZM142.2 59.7a1.5 1.5 0 1 0 0-3 1.5 1.5 0 0 0 0 3ZM148.6 78.4l-3.6-.7 2.5-2.8 1.1 3.5ZM233.6 58.8l-2.9-.6 2-2.2.9 2.8ZM253.6 77.1l-1.9 3.8-2.3-3.6 4.2-.2ZM181.1 117.1l-2.9-.8 2.1-2.2.8 3Z" fill="#fff" stroke="#0C296E" stroke-width=".5" stroke-miterlimit="10" stroke-linecap="round" stroke-linejoin="round"/><path d="M115.3 130.7v1.8M115.3 134.101v1.9M112.7 133.3h1.8M116.2 133.3h1.8M266.8 159.8v1.8M266.8 163.3v1.8M264.2 162.399h1.8M267.6 162.399h1.9" stroke="#0C296E" stroke-width=".5" stroke-miterlimit="10" stroke-linecap="round" stroke-linejoin="round" stroke-dasharray="2.76 2.76"/></svg>