<svg viewBox="0 0 400 300" fill="none" xmlns="http://www.w3.org/2000/svg"><path d="M166.123 233.931c-.966 2.67-2.291 4.847-4.033 6.608-1.799-1.836-3.143-4.071-4.071-6.608h8.104Zm4.544 0v-1.382h-7.857v-3.2h-1.421v3.2h-7.706v1.382h2.783c1.08 3.011 2.557 5.567 4.507 7.631-2.026 1.666-4.507 2.878-7.517 3.749.303.322.757 1.003.89 1.344 3.048-.984 5.604-2.291 7.687-4.071 2.083 1.875 4.658 3.238 7.82 4.052.208-.397.663-1.041 1.004-1.363-3.068-.72-5.624-2.007-7.688-3.749 1.969-1.988 3.465-4.488 4.582-7.593h2.916Zm6.04-4.506c-1.003 2.859-2.669 5.68-4.43 7.517.246.322.662 1.041.795 1.382a21.492 21.492 0 0 0 1.742-2.215v10.508h1.344v-12.686a32.986 32.986 0 0 0 1.875-4.09l-1.326-.416Zm12.838 9.316h-5.131v-4.147h4.317v-1.382h-4.317v-3.617h-1.401v3.617h-2.519a29.16 29.16 0 0 0 .625-2.632l-1.325-.284c-.436 2.442-1.212 4.904-2.329 6.456.36.171.947.512 1.212.72.511-.795.965-1.78 1.363-2.878h2.973v4.147h-5.397v1.382h5.397v6.532h1.401v-6.532h5.131v-1.382Zm18.764.946v-1.401h-7.933c.246-1.42.359-3.01.397-4.733h6.892v-1.383h-6.873c.019-.89.019-1.817.019-2.783h-1.477v2.783h-7.006v1.383h6.987c-.038 1.76-.151 3.332-.435 4.733h-7.176v1.401h6.797c-.928 2.708-2.878 4.582-7.044 5.737.341.284.758.853.909 1.212 4.545-1.306 6.627-3.54 7.593-6.703 1.458 3.333 3.957 5.605 7.65 6.628.189-.398.587-.966.927-1.269-3.465-.795-5.888-2.783-7.233-5.605h7.006Zm-14.352-5.32c.681 1.136 1.325 2.669 1.533 3.616l1.345-.378c-.227-.966-.909-2.462-1.647-3.579l-1.231.341Zm9.581 3.692c.719-.947 1.609-2.405 2.31-3.692l-1.401-.398c-.455 1.117-1.364 2.727-2.045 3.73l1.136.36Zm7.46-4.204v1.421h14.617v-1.421h-14.617Zm14.03 0v.303c-.246 7.271-.549 10.074-1.155 10.68-.227.227-.435.284-.833.284-.473 0-1.666 0-2.935-.133.265.435.455 1.06.493 1.477 1.155.076 2.366.095 3.029.038.682-.057 1.136-.227 1.553-.758.757-.871 1.022-3.559 1.306-11.152.019-.208.019-.739.019-.739h-1.477Zm-7.801-4.525v2.253c0 3.92-.397 9.714-6.74 13.823.359.246.89.719 1.117 1.06 6.608-4.393 7.062-10.641 7.062-14.883v-2.253h-1.439Zm-4.714 1.023c.757.89 1.628 2.12 1.988 2.878l1.287-.606c-.397-.777-1.287-1.969-2.045-2.803l-1.23.531Zm6.381 7.839c.965 1.136 2.101 2.726 2.575 3.73l1.249-.663c-.492-1.004-1.647-2.537-2.651-3.654l-1.173.587Zm20.316-5.605v3.749c0 1.401.398 1.761 2.045 1.761h2.708c1.268 0 1.666-.455 1.799-2.234-.36-.095-.947-.303-1.212-.512-.057 1.326-.171 1.534-.72 1.534h-2.423c-.701 0-.815-.076-.815-.549v-3.749h3.825v2.102h1.42v-3.371h-7.308v-1.969h-1.42v1.969h-7.158v3.787h1.382v-2.518h3.655c-.322 2.764-1.212 4.336-5.264 5.131.284.284.644.833.776 1.174 4.45-1.003 5.567-2.954 5.946-6.305h2.764Zm-.681 12.194v-3.806h5.983v-1.269h-12.951v1.269h5.548v3.806h-7.517v1.287h16.548v-1.287h-7.611Z" fill="#000"/><path d="m123.8 77.7 1.4-5 3.6 3.7-5 1.3ZM302.7 142.399l-4.7 2.7v-5.4l4.7 2.7ZM157.4 57a2.7 2.7 0 1 0 0-5.4 2.7 2.7 0 0 0 0 5.4Z" fill="#fff" stroke="#0C296E" stroke-width=".5" stroke-miterlimit="10"/><path d="M194.2 94.2a2.1 2.1 0 1 0 0-4.2 2.1 2.1 0 0 0 0 4.2Z" fill="#fff" stroke="#0C296E" stroke-width=".51" stroke-miterlimit="10"/><path d="M252.3 69.2a3.2 3.2 0 1 0 0-6.4 3.2 3.2 0 0 0 0 6.4Z" fill="#fff" stroke="#0C296E" stroke-width=".5" stroke-miterlimit="10"/><path d="m298.2 168.4-1.7-2.4-3-.1 2.4-1.7.1-2.9 1.7 2.4 3 .1-2.4 1.7-.1 2.9Z" fill="#FFC60A"/><path d="M287.5 87.1v106.3c0 6.6-5.4 11.9-12 11.9l-128.8-.2v-118c0-6.1 4.9-11 11-11h118.7c6.1 0 11.1 4.9 11.1 11Z" fill="#00D6B9"/><path d="M287.5 191.3v2.1c0 6.6-5.4 11.9-12 11.9l-128.8-1.7v-12.3h140.8Z" fill="#0C296E"/><path d="M137 204.9c-6.7-3.9-11.3-10.6-12.6-18.2l-13-75.7c-1.1-4 1.9-7.9 6.1-7.9h49.7l3.1 6.3c2.7 5.5 8.4 9 14.5 9l61.3-.5c2.8 0 5.3 1.8 6.1 4.5l12.3 64.9c1.3 7.1 5.4 13.4 11.3 17.6H137ZM279 86.8h-23.2v2.7H279v-2.7ZM279 93.6h-23.2v2.7H279v-2.7ZM279 100.3h-23.2v2.7H279v-2.7Z" fill="#fff" stroke="#0C296E" stroke-width=".5" stroke-miterlimit="10"/><path d="M147 98.3h21.6l5 8.9c3.7 5.3 6.7 8 13.2 7.9l63.6-.6c4.8 0 8 4 8.9 8.7l14 68.4" stroke="#0C296E" stroke-width=".5" stroke-miterlimit="10" stroke-dasharray="6.4 6.4"/><path d="M114 129.5h139.4" stroke="#0C296E" stroke-width=".5" stroke-miterlimit="10"/><path d="m116.091 188.447-3.264-2.134-5.417 8.288 3.265 2.133 5.416-8.287Z" fill="#FFC60A"/><path d="M99.3 210.699c-2-1.3-2.6-4-1.3-6l8.8-13.5 7.2 4.7-8.8 13.5c-1.2 2-3.9 2.6-5.9 1.3Z" fill="#FFC60A"/><path d="m114.1 195.899-8.8 13.5c-1.3 2-4 2.6-6 1.3s-2.6-4-1.3-6" stroke="#0C296E" stroke-width=".5" stroke-miterlimit="10" stroke-linecap="round" stroke-linejoin="round"/><path d="M134.4 157c-9.3-6.1-21.7-3.5-27.8 5.8-6.1 9.3-3.5 21.7 5.8 27.8 9.3 6.1 21.7 3.5 27.8-5.8 6.1-9.3 3.5-21.8-5.8-27.8Zm-19.2 29.3c-6.9-4.5-8.9-13.8-4.4-20.8 4.5-6.9 13.8-8.9 20.8-4.4 6.9 4.5 8.9 13.8 4.4 20.8s-13.9 9-20.8 4.4Z" fill="#fff" stroke="#0C296E" stroke-width=".5" stroke-miterlimit="10"/><path d="m107.6 202.5-2.4 3.7" stroke="#fff" stroke-width="1.067" stroke-miterlimit="10" stroke-linecap="round" stroke-linejoin="round"/><path d="M103.9 208.9a.6.6 0 1 0 0-1.2.6.6 0 0 0 0 1.2Z" fill="#fff"/><path d="M120.5 167.7c1.7-2.6 5.2-3.4 7.8-1.7 2.6 1.7 3.3 5.2 1.6 7.8-1.4 2.1-3.9 3-6.1 2.4-1.1-.3-2.3.2-2.9 1.1l-.1.1" stroke="#00D6B9" stroke-width="2.951" stroke-miterlimit="10" stroke-linecap="round" stroke-linejoin="round"/><path d="M118.3 183.2a1.9 1.9 0 1 0 0-3.8 1.9 1.9 0 0 0 0 3.8Z" fill="#00D6B9"/></svg>