<svg viewBox="0 0 400 300" fill="none" xmlns="http://www.w3.org/2000/svg"><path d="M145.965 233.163v-1.19h-7.36c.119-1.189.153-2.464.17-3.807h6.221v-1.172h-13.104v1.172h5.609c-.017 1.343-.051 2.618-.17 3.807h-6.493v1.19h6.34c-.544 3.297-2.057 5.813-6.544 7.172.289.255.663.748.799 1.054 4.844-1.563 6.459-4.47 7.019-8.226h7.513Zm-5.031 6.782c-.884 0-1.054-.119-1.054-.68v-5.405h-1.292v5.388c0 1.512.476 1.92 2.244 1.92h3.195c1.632 0 2.023-.697 2.21-3.382-.357-.102-.918-.306-1.224-.544-.102 2.312-.238 2.703-1.071 2.703h-3.008Zm7.512-4.453h4.47c-.459 1.24-1.19 2.787-1.836 3.96-.917.034-1.767.051-2.498.068l.17 1.24c2.906-.102 7.308-.289 11.472-.493.323.408.578.799.782 1.139l1.139-.697c-.782-1.257-2.431-3.093-3.994-4.436l-1.071.578a25.976 25.976 0 0 1 2.243 2.295c-2.379.102-4.775.187-6.883.255.68-1.19 1.411-2.652 2.006-3.909h7.971v-1.173h-13.971v1.173Zm2.889-4.402v1.155h8.039v-1.155h-8.039Zm3.264-5.218c-1.309 2.158-4.13 4.606-7.037 5.999.272.255.595.714.731 1.003 2.889-1.427 5.643-3.756 7.019-5.795 1.581 2.192 4.555 4.453 7.173 5.727.221-.374.527-.816.815-1.122-2.668-1.104-5.625-3.314-7.41-5.812h-1.291Zm16.775 1.173-1.207.204c1.292 7.07 3.722 12.016 9.382 14.242.187-.34.594-.85.9-1.122-5.472-1.937-7.937-6.764-9.075-13.324Zm1.699-.459c.697 1.138 1.411 2.668 1.683 3.603l1.155-.544c-.288-.918-1.053-2.396-1.75-3.518l-1.088.459Zm4.946.255c-.969 6.067-2.889 11.098-8.855 13.664.238.255.578.731.748 1.037 6.237-2.787 8.277-8.039 9.399-14.497l-1.292-.204Zm-12.237.119c.782.815 1.699 1.92 2.124 2.651l.969-.816c-.425-.68-1.394-1.75-2.175-2.515l-.918.68Zm1.275 14.021c.255-.323.696-.663 3.688-2.804a6.425 6.425 0 0 1-.408-1.071l-3.144 2.159-.357.527.221 1.189Zm-2.397-9.857v1.223h3.45v-1.223h-3.45Zm2.397 9.857c0-.51 1.223-1.699 1.223-1.699v-8.158h-1.223v7.24a2.32 2.32 0 0 1-.748 1.716c.221.187.595.646.748.901Zm18.151-2.158v-4.742h8.43v4.742h-8.43Zm8.43-10.572v4.589h-8.43v-4.589h8.43Zm-9.705-1.24v14.157h1.275v-1.105h8.43v1.037h1.326v-14.089h-11.031Zm28.061 3.756h-5.099v-3.111h5.099v3.111Zm1.24-4.215h-7.495v5.302h7.495v-5.302Zm-8.175 8.6c-.34-.391-1.784-1.887-2.311-2.329v-1.037h2.124v-1.189h-2.124v-2.873a14.05 14.05 0 0 0 2.158-.679l-.883-.952c-1.241.561-3.468 1.054-5.371 1.36.153.288.323.696.391.985a50.692 50.692 0 0 0 2.481-.425v2.584h-2.77v1.189h2.6c-.68 1.938-1.852 4.13-2.923 5.32.204.306.51.799.629 1.156.867-1.037 1.767-2.736 2.464-4.453v7.512h1.224v-7.274c.578.697 1.275 1.632 1.547 2.107l.764-1.002Zm4.997 4.623v-2.193h3.382v-1.105h-3.382v-2.022h3.756v-1.122h-8.702v1.122h3.688v2.022h-3.297v1.105h3.297v2.193h-4.452v1.138h9.84v-1.138h-4.13Zm8.238-1.401-.096.651c-.069.459-.173.95-.314 1.473-.137.523-.28 1.016-.429 1.479-.149.462-.271.831-.368 1.104h-1.086l.205-1.02c.084-.422.169-.895.253-1.418.089-.519.161-1.05.218-1.593l.072-.676h1.545Zm3.137-11.414c.901.798 2.023 1.92 2.549 2.634l.867-.918c-.544-.68-1.682-1.75-2.583-2.498l-.833.782Zm1.309 14.157c.255-.34.697-.697 3.569-2.923-.153-.238-.357-.731-.442-1.071l-3.025 2.261-.34.544.238 1.189Zm-2.414-9.993v1.24h3.298v-1.24h-3.298Zm2.414 9.993c0-.476 1.376-1.461 1.376-1.461v-8.532h-1.223v7.461c0 .748-.51 1.258-.833 1.444.238.255.561.782.68 1.088Zm4.997-5.557v.917h5.948v-.917h-5.948Zm-1.615-8.43v.968h9.297v-.968h-9.297Zm.408 2.056v.935h8.362v-.935h-8.362Zm-.918 2.125v.968h10.317v-.968h-10.317Zm2.108 6.543v.935h5.999v-.935h-5.999Zm-.901-4.572v8.124h1.207v-7.138h5.71v-.986h-6.917Zm6.526 0v6.696c0 .221-.068.289-.306.289-.221.017-1.036.017-1.903-.017.153.323.323.799.374 1.105 1.206.017 1.971 0 2.447-.187s.612-.527.612-1.173v-6.713h-1.224Zm-3.297-7.495v5.83h1.275v-5.83h-1.275Zm11.302 4.266v1.139h3.399c-.917 1.495-2.226 2.634-3.909 3.416.272.238.697.748.85 1.003 1.955-1.02 3.433-2.465 4.453-4.419h1.887c.934 1.75 2.532 3.365 4.181 4.181.204-.306.595-.765.866-.986-1.461-.612-2.872-1.836-3.756-3.195h3.332v-1.139h-5.983c.272-.68.493-1.394.68-2.176 1.682-.221 3.263-.509 4.487-.9l-.986-.969c-1.989.646-5.762 1.037-8.923 1.224.153.289.289.764.34 1.07a75.581 75.581 0 0 0 3.756-.289 13.666 13.666 0 0 1-.68 2.04h-3.994Zm.238-2.295c-.578-.594-1.767-1.308-2.719-1.75l-.731.901c.969.476 2.142 1.257 2.702 1.835l.748-.986Zm-.714 4.385c-.611-.526-1.835-1.189-2.838-1.597l-.714.918c1.02.458 2.244 1.172 2.839 1.716l.713-1.037Zm-2.039 9.008c.748-1.512 1.581-3.484 2.209-5.167l-1.002-.696c-.697 1.801-1.666 3.892-2.346 5.132l1.139.731Zm4.589-5.982c-.357 1.325-1.054 2.821-2.108 3.688l.918.714c1.156-.986 1.802-2.618 2.227-4.062l-1.037-.34Zm2.107 4.793c0 .203-.034.254-.272.271-.238.017-.968.017-1.818-.017.153.34.323.799.374 1.122 1.138 0 1.869 0 2.311-.187.459-.187.578-.544.578-1.173v-6.577h-1.173v6.561Zm1.921-4.147c.544 1.138 1.003 2.634 1.156 3.637l1.019-.391c-.153-.986-.646-2.465-1.206-3.603l-.969.357Zm2.107-.408c.986 1.291 2.023 3.059 2.431 4.215l1.053-.544c-.424-1.173-1.461-2.89-2.515-4.147l-.969.476Zm12.39-6.374h-3.756c.017-.969.034-1.954.034-2.957h-1.24c0 1.003 0 1.988-.017 2.957h-2.38v1.241h2.346c-.136 4.249-.646 8.005-2.754 10.231.306.187.765.595.952.867 2.294-2.481 2.872-6.543 3.025-11.098h2.567c-.119 6.509-.272 8.821-.663 9.297-.119.238-.289.289-.561.272-.306 0-1.037 0-1.819-.068.221.356.34.9.374 1.274.748.051 1.53.051 1.989-.017.51-.051.816-.204 1.122-.646.526-.73.645-3.195.781-10.707v-.646Zm2.584 9.62v-9.484h3.297v9.484h-3.297Zm-1.19-10.708V241.1h1.19v-1.24h3.297v1.121h1.258v-13.036h-5.745Z" fill="#000"/><path d="M228.1 205.7h-98.6c-5 0-9.1-4.1-9.1-9.1V82.4c0-5 4.1-9.1 9.1-9.1h98.6c5 0 9.1 4.1 9.1 9.1v114.2c0 5-4.1 9.1-9.1 9.1Z" fill="#fff"/><path d="M237.2 117.899v78.7c0 5-4.1 9.1-9.1 9.1h-98.6c-5 0-9.1-4.1-9.1-9.1v-14.4M120.5 177.4v-95c0-5 4.1-9.1 9.1-9.1h98.5c5 0 9.1 4.1 9.1 9.1v25.9" stroke="#0C296E" stroke-width=".5" stroke-miterlimit="10"/><path d="M136.3 94.8a4.3 4.3 0 1 0 0-8.6 4.3 4.3 0 0 0 0 8.6ZM152.1 94.8a4.3 4.3 0 1 0 0-8.6 4.3 4.3 0 0 0 0 8.6ZM229.9 205.1c.3.1.2.5-.1.5H119.1c-.3 0-.6-.1-.8-.1-6-.9-10.7-5.8-11.8-11.7v-.1c-.5-2.7 1.6-5.2 4.3-5.2h104.6c2.7 0 5 1.9 5.5 4.6.9 5 3.2 9.3 7.8 11.5l1.2.5Z" fill="#FFFCFD" stroke="#0C296E" stroke-width=".5" stroke-miterlimit="10"/><path d="M239.4 107c13.807 0 25-11.193 25-25s-11.193-25-25-25-25 11.193-25 25 11.193 25 25 25Z" fill="#00D6B9"/><path d="m228.338 78.61-2.545 2.545 10.536 10.536 2.545-2.546-10.536-10.535Z" fill="#fff"/><path d="m233.699 89.102 2.545 2.545 16.759-16.758-2.546-2.545-16.758 16.758Z" fill="#fff"/><path d="M211.6 115.9v53.2c0 5.2-4.2 9.4-9.4 9.4h-88.9c-5.2 0-9.4-4.2-9.4-9.4v-53.2c0-5.2 4.2-9.4 9.4-9.4h88.9c5.2 0 9.4 4.3 9.4 9.4Z" fill="#FFFCFD" stroke="#0C296E" stroke-width=".5" stroke-miterlimit="10"/><path d="M211.6 115.9v2H103.9v-2c0-5.2 4.2-9.4 9.4-9.4h88.9c5.2 0 9.4 4.3 9.4 9.4Z" fill="#FFFCFD" stroke="#0C296E" stroke-width=".5" stroke-miterlimit="10"/><path d="M140.5 102.2H138v8.7h2.5v-8.7ZM177.6 102.2h-2.5v8.7h2.5v-8.7Z" fill="#FFFCFD" stroke="#0C296E" stroke-width=".5" stroke-miterlimit="10"/><path d="M138.4 125.101H129v8.8h9.4v-8.8ZM159.8 125.101h-9.4v8.8h9.4v-8.8ZM181.1 125.101h-9.4v8.8h9.4v-8.8ZM202.4 125.101H193v8.8h9.4v-8.8ZM202.4 141.7H193v8.8h9.4v-8.8ZM202.4 158.7H193v8.8h9.4v-8.8ZM117.5 141.5h-9.4v8.8h9.4v-8.8Z" fill="#B8B8B8"/><path d="M138.9 141.5h-9.4v8.8h9.4v-8.8Z" fill="#FFC60A"/><path d="M160.2 141.5h-9.4v8.8h9.4v-8.8ZM181.5 141.5h-9.4v8.8h9.4v-8.8ZM117.5 159.101h-9.4v8.8h9.4v-8.8Z" fill="#B8B8B8"/><path d="M138.9 159.101h-9.4v8.8h9.4v-8.8ZM160.2 159.101h-9.4v8.8h9.4v-8.8Z" fill="#FFC60A"/><path d="M181.5 159.101h-9.4v8.8h9.4v-8.8Z" fill="#B8B8B8"/><path d="M285.2 212.099s-14-5.5-26.6-5.6c-7.4-.1-15.4-1-22.3-3.1-5-1.4-9.4-3.4-12.7-6-2.3-1.8-4-7.2-4.8-14 0-.3-.1-.5-.1-.8-.4-3.8-.5-7.9-.3-12.1v-.6c.3-5.4 1.1-10.7 2.6-15.3.1-.2.1-.4.2-.6 2.3-6.6 5.9-11.4 11.3-11.9.6-.1 1.2-.1 1.8 0 19.4 1.3 31.1 12.5 31.1 12.5l6.8 19.6" fill="#FFFCFD"/><path d="M285.2 212.099s-14-5.5-26.6-5.6c-7.4-.1-15.4-1-22.3-3.1-5-1.4-9.4-3.4-12.7-6-2.3-1.8-4-7.2-4.8-14 0-.3-.1-.5-.1-.8-.4-3.8-.5-7.9-.3-12.1v-.6c.3-5.4 1.1-10.7 2.6-15.3.1-.2.1-.4.2-.6 2.3-6.6 5.9-11.4 11.3-11.9.6-.1 1.2-.1 1.8 0 19.4 1.3 31.1 12.5 31.1 12.5l6.8 19.6" stroke="#0C296E" stroke-width=".5" stroke-miterlimit="10"/><path d="M258 172.8s-.2 5.3-4.2 5.8c-2.1.3-5.3-.4-10-3l-22.9-21c.1-.2.1-.4.2-.6 2.3-6.6 5.9-11.4 11.3-11.9 5.1 4 19 14.4 25.6 30.7ZM250.3 186.699c1 .6 1.3 2 .6 2.9-1.6 1.9-5.2 4.2-13 2-7-2-14.3-6-19.2-9-.4-3.8-.5-7.9-.3-12.1v-.6c7.8 4 24 12.3 31.7 16.7 0 0 .1.1.2.1Z" fill="#FFFCFD" stroke="#0C296E" stroke-width=".5" stroke-miterlimit="10"/><path d="M239.4 202.8c-1.7.4-3.6-.1-5.2-.6-4.1-1.4-7.8-3.1-10.7-5.4-2.3-1.8-4-7.2-4.8-14 6.7 3.6 17.6 10.1 22 15.9 1.5 2.1.8 3.5-1.3 4.1ZM252.2 186.8c-.4.2-1.2.1-2.2-.2-6.8-1.9-25-12.2-31.8-16.1v-.6c.3-5.4 1.1-10.7 2.6-15.3.1-.2.1-.4.2-.6 8.2 4.9 26.4 16.3 32.7 24.6.4.5.7 1 1 1.5.1 0 1.4 5.1-2.5 6.7Z" fill="#FFFCFD" stroke="#0C296E" stroke-width=".5" stroke-miterlimit="10"/><path d="m296.3 177.6-14.2-6.5c-.8-.4-1.4-1.1-1.6-2l-9.2-52.1c-.2-1.1-1-2.1-2.2-2.3-1.9-.4-4.6.1-5.8 5.6-2 8.9-2.3 30.2-2.3 30.2s-16.5 18.5-5.7 42.2" fill="#FFFCFD"/><path d="m296.3 177.6-14.2-6.5c-.8-.4-1.4-1.1-1.6-2l-9.2-52.1c-.2-1.1-1-2.1-2.2-2.3-1.9-.4-4.6.1-5.8 5.6-2 8.9-2.3 30.2-2.3 30.2s-16.5 18.5-5.7 42.2" stroke="#0C296E" stroke-width=".5" stroke-miterlimit="10"/><path d="M158 213.5a1.5 1.5 0 1 0-.001-3.001A1.5 1.5 0 0 0 158 213.5ZM113.2 88.3a1.4 1.4 0 1 0 0-2.8 1.4 1.4 0 0 0 0 2.8ZM142.5 66.4a1.7 1.7 0 1 0 0-3.4 1.7 1.7 0 0 0 0 3.4ZM253.7 131.8a1.2 1.2 0 1 0 0-2.4 1.2 1.2 0 0 0 0 2.4Z" fill="#FFFCFD" stroke="#0C296E" stroke-width=".5" stroke-miterlimit="10"/><path d="M253.4 114.9v1.9M253.4 118.7v1.9M250.5 117.7h1.9M254.3 117.7h1.9M106.6 180.3v1.9M106.6 184.1v1.9M103.7 183.2h1.9M107.5 183.2h1.9" stroke="#0C296E" stroke-width=".5" stroke-miterlimit="10" stroke-linecap="round" stroke-linejoin="round"/><path d="m147.6 149.6-5.7-1.6 1.4 5.7 1.3-1.1 2.9 3 1.9-1.7-3-3.1 1.2-1.2Z" fill="#0C296E"/></svg>