<svg viewBox="0 0 400 300" fill="none" xmlns="http://www.w3.org/2000/svg"><path d="M162.918 236.464v1.031h6.201v-1.031h-6.201Zm3.041.44v4.629h1.183v-4.629h-1.183Zm-9.968 4.984v6.336h1.216v-5.322h8.583v5.271h1.268v-6.285h-11.067Zm.845 2.399v.913h9.326v-.913h-9.326Zm0 2.332v.997h9.377v-.997h-9.377Zm11.117-13.703c-1.267.423-3.497.727-5.356.879.118.27.254.676.304.929 1.909-.118 4.224-.405 5.745-.862l-.693-.946Zm-5.356.879v2.534c0 1.386-.135 3.227-1.233 4.596.27.101.777.439.98.625 1.149-1.436 1.385-3.616 1.385-5.204v-2.551h-1.132Zm-8.651 0v.997h7.84v-.997h-7.84Zm4.005 1.706v6.049h1.182v-6.049h-1.182Zm-3.413 2.366c0-.237.659-.609.659-.609v-.033c1.047-1.031 2.196-2.653 3.075-4.241l-1.268-.355c-.608 1.436-1.689 2.974-1.993 3.362-.321.389-.592.676-.862.727.135.321.321.895.389 1.149Zm0 0c.152-.135.675-.237 1.385-.237h5.88v-1.014h-6.59l-.675.338v.913Zm-.575 1.52.118 1.082c1.994-.237 4.867-.541 7.637-.845v-.963c-2.906.287-5.862.574-7.755.726Zm31.968.609v-1.183h-7.316c.118-1.183.152-2.45.169-3.785h6.184v-1.166h-13.027v1.166h5.575c-.017 1.335-.05 2.602-.169 3.785h-6.454v1.183h6.302c-.54 3.277-2.044 5.778-6.505 7.13.288.253.659.743.794 1.047 4.816-1.554 6.421-4.443 6.979-8.177h7.468Zm-5.002 6.741c-.878 0-1.047-.118-1.047-.676v-5.373h-1.284v5.356c0 1.504.473 1.91 2.23 1.91h3.176c1.622 0 2.011-.693 2.197-3.363-.355-.101-.912-.304-1.217-.54-.101 2.298-.236 2.686-1.064 2.686h-2.991Zm12.233-11.117v1.25h9.783v-1.25h-9.783Zm3.143 3.734v1.199h4.562v-1.199h-4.562Zm4.156 0v.236c-.169 4.883-.405 6.708-.794 7.13-.152.186-.304.22-.625.203-.321 0-1.132 0-2.011-.084.203.337.338.844.372 1.216.862.051 1.707.068 2.18.017.507-.051.844-.169 1.165-.558.524-.608.744-2.433.964-7.569.016-.169.016-.591.016-.591h-1.267Zm-4.832-3.059c-.101 4.461-.253 8.786-3.075 11.067.321.203.726.592.929.896 3.008-2.551 3.312-7.13 3.413-11.963h-1.267Zm1.216-3.294c.305.828.659 1.943.811 2.602l1.251-.389c-.169-.642-.541-1.706-.862-2.517l-1.2.304Zm-7.89.709c.794.794 1.859 1.91 2.382 2.585l.93-.895c-.541-.642-1.622-1.69-2.417-2.45l-.895.76Zm1.098 13.737c.237-.355.676-.744 3.717-3.041a6.39 6.39 0 0 1-.371-1.014l-3.244 2.298-.338.54.236 1.217Zm-2.433-9.496v1.217h3.447v-1.217h-3.447Zm2.433 9.496c0-.49 1.436-1.555 1.436-1.555v-7.941h-1.267v6.843c0 .777-.608 1.369-.963 1.605.237.237.659.761.794 1.048Zm15.241-10.966v11.743h1.25v-11.743h-1.25Zm.185-2.99c.862.895 1.96 2.112 2.518 2.838l.963-.693c-.558-.709-1.707-1.909-2.551-2.737l-.93.592Zm4.258.135v1.183h8.921v-1.183h-8.921Zm8.06 0v12.807c0 .287-.102.389-.406.406-.27 0-1.301.016-2.315-.034.169.355.372.929.423 1.284 1.385.017 2.298-.017 2.838-.22.524-.219.727-.608.727-1.419v-12.824h-1.267Zm-7.992 4.173v1.149h4.072v3.92h-4.072v1.149h5.305v-6.218h-5.305Zm-.642 0v7.316h1.166v-7.316h-1.166Zm19.075 3.819c-.388-.372-2.061-1.91-2.669-2.4v-1.774h2.315v-1.149h-2.315v-3.582h-1.217v3.582h-2.804v1.149h2.652c-.591 2.366-1.757 5.069-2.973 6.556.236.287.574.76.709 1.115.896-1.132 1.757-2.94 2.416-4.815v7.823h1.217v-7.604c.693.744 1.588 1.724 1.977 2.248l.692-1.149Zm7.367-7.401-.22.051h-7.586v1.216h7.232c-.558 2.923-1.572 5.34-2.906 7.249-1.234-1.859-1.994-4.123-2.552-7.012l-1.115.236c.608 3.245 1.47 5.745 2.872 7.806a11.688 11.688 0 0 1-4.477 3.329c.253.237.608.743.794 1.064a13.47 13.47 0 0 0 4.461-3.345c1.047 1.25 2.348 2.349 4.004 3.379.169-.371.558-.828.879-1.064-1.707-.98-3.025-2.062-4.072-3.329 1.689-2.298 2.923-5.373 3.497-9.326l-.811-.254Zm7.705-.828-.203.051h-4.14v14.7h1.183v-13.551h2.484c-.406 1.149-.963 2.703-1.504 3.92 1.318 1.301 1.69 2.416 1.69 3.345 0 .507-.102.963-.389 1.149a1.514 1.514 0 0 1-.591.152 6.263 6.263 0 0 1-1.098-.034c.202.338.304.828.321 1.149.405.017.895.034 1.25-.017.372-.05.693-.152.946-.321.507-.337.71-1.013.693-1.943 0-1.047-.304-2.247-1.673-3.632.642-1.318 1.335-3.042 1.859-4.461l-.828-.507Zm2.957 4.309h5.102v2.095h-5.102v-2.095Zm5.102-3.126v2.061h-5.102v-2.061h5.102Zm.98 6.742c-.557.625-1.453 1.402-2.247 2.027-.389-.743-.693-1.571-.929-2.433h3.446v-7.451h-7.569v12.875c-.71.135-1.352.253-1.892.355l.405 1.216c1.639-.372 3.886-.862 5.998-1.352l-.084-1.081c-1.082.22-2.18.439-3.21.642v-5.204h1.824c.811 3.295 2.349 5.914 4.833 7.181.169-.321.54-.794.828-1.031-1.301-.591-2.349-1.571-3.143-2.838a23.68 23.68 0 0 0 2.72-2.214l-.98-.692Z" fill="#000"/><path d="m207.5 218.9-69.2-.6c-4.7 0-8.5-3.8-8.5-8.5l-2.3-15.5c-.3-2.2-.4-4.5 0-6.8.8-5.1 3.2-8.4 9.1-8.4h76.8l2.7 31.3c-.1 4.7-3.9 8.5-8.6 8.5Z" fill="#00D6B9"/><path d="M134.8 179.2s-6.1 26.1 31.3 26.1 43.1-.5 43.1-.5l-5.2-26.5-69.2.9ZM130.2 90.4l30.6-.2V70l-40-.5c-5.9 0-5.4 5.8-5.1 11.8.1 1.4.4 4.3.7 5.4.9 3 2.3 3.6 5.4 3.7h8.4Z" fill="#0C296E"/><path d="M248.9 204.6h-83.7c-5.9 0-11-4.1-12.2-9.9L133.8 87.5c-1.1-6.3-4.4-12-9.3-16.2l-1.6-1.4h106.9c5.4 1.3 9.6 10.4 10.9 17.4l15.7 101.3c1.2 8.5.9 15.6-7.5 16Z" fill="#fff" stroke="#0C296E" stroke-width=".5" stroke-miterlimit="10" stroke-linecap="round" stroke-linejoin="round"/><path d="M146.7 84.2a4.3 4.3 0 1 0 0-8.6 4.3 4.3 0 0 0 0 8.6ZM161.9 84.2a4.3 4.3 0 1 0 0-8.6 4.3 4.3 0 0 0 0 8.6Z" fill="#fff" stroke="#0C296E" stroke-width=".5" stroke-miterlimit="10"/><path d="M227.3 105.3h-69.1l-1.6-7.8h69.2l1.5 7.8ZM230.3 120.3h-69.1l-1.6-7.8h69.2l1.5 7.8Z" fill="#fff" stroke="#0C296E" stroke-width=".5" stroke-miterlimit="10" stroke-linecap="round" stroke-linejoin="round"/><path d="M242.8 98h25.8c4.6 0 8.4 3.4 9 7.9l8.3 64.4h-33.6" stroke="#0C296E" stroke-width=".5" stroke-miterlimit="10" stroke-dasharray="2.38 2.38"/><path d="M263.8 178.8h-78.1c-5.2 0-9.6-4.1-10.4-9.6l-7.4-51.5c-1-6.9 3.9-13.2 10.4-13.2h78.1c5.2 0 9.6 4.1 10.4 9.6l7.4 51.5c1 7-4 13.2-10.4 13.2Z" fill="#00D6B9"/><path d="M225.3 165.9c12.316 0 22.3-9.984 22.3-22.3s-9.984-22.3-22.3-22.3-22.3 9.984-22.3 22.3 9.984 22.3 22.3 22.3Z" fill="#fff"/><path d="M236.1 158.7h-21.5c-1.3 0-2.3-1-2.3-2.3v-13.3c0-1.3 1-2.3 2.3-2.3h21.5c1.3 0 2.3 1 2.3 2.3v13.3c0 1.3-1 2.3-2.3 2.3Z" fill="#FFC60A"/><path d="M225.4 151.1a3.5 3.5 0 1 0 0-7 3.5 3.5 0 0 0 0 7Z" fill="#fff"/><path d="M227.1 148.8h-3.7v7h3.7v-7Z" fill="#fff"/><path d="m237.5 139.9-3.7-.1c.1-2.8-.9-5.3-2.6-7.1-1.6-1.6-3.7-2.5-6-2.5-4.6 0-8.4 4.3-8.4 9.5h-3.7c0-7.1 5.5-13.1 12.1-13.1 3.2 0 6.3 1.3 8.6 3.6 2.5 2.5 3.8 5.9 3.7 9.7Z" fill="#FFC60A"/><path d="m126.3 130.6 3.9-2.5.2 4.6-4.1-2.1ZM292 148.099l-4.2 2.4v-4.8l4.2 2.4ZM184 59.9a1.9 1.9 0 1 0 0-3.8 1.9 1.9 0 0 0 0 3.8ZM249.1 92.6a2.9 2.9 0 1 0 0-5.8 2.9 2.9 0 0 0 0 5.8Z" fill="#fff" stroke="#0C296E" stroke-width=".5" stroke-miterlimit="10"/><path d="m287.1 181.199-1.5-2.1-2.6-.1 2.1-1.5.1-2.6 1.5 2.1 2.6.1-2.1 1.5-.1 2.6ZM130.5 109.9l-1.6-2.1-2.6-.1 2.2-1.5.1-2.7 1.5 2.2 2.6.1-2.1 1.5-.1 2.6Z" fill="#FFC60A"/></svg>