<svg viewBox="0 0 400 300" fill="none" xmlns="http://www.w3.org/2000/svg"><path d="M156.105 225.908v.968h5.825v-.968h-5.825Zm2.857.412v4.349h1.111v-4.349h-1.111Zm-9.364 4.682v5.951h1.143v-4.999h8.062v4.952h1.19v-5.904h-10.395Zm.794 2.254v.857h8.76v-.857h-8.76Zm0 2.19v.936h8.808v-.936h-8.808Zm10.443-12.871c-1.191.397-3.286.683-5.031.825.111.254.238.635.285.873 1.794-.111 3.968-.381 5.396-.809l-.65-.889Zm-5.031.825v2.381c0 1.301-.127 3.031-1.159 4.317.254.095.73.412.921.587 1.079-1.349 1.301-3.396 1.301-4.888V223.4h-1.063Zm-8.126 0v.937h7.364v-.937h-7.364Zm3.761 1.603v5.682h1.111v-5.682h-1.111Zm-3.205 2.222c0-.222.619-.571.619-.571v-.032c.984-.968 2.063-2.492 2.888-3.983l-1.19-.334c-.572 1.349-1.587 2.793-1.873 3.158-.302.366-.555.635-.809.683.127.301.301.841.365 1.079Zm0 0c.142-.127.634-.222 1.301-.222h5.523v-.952h-6.19l-.634.317v.857Zm-.54 1.428.111 1.016c1.873-.222 4.571-.508 7.173-.793v-.905c-2.729.27-5.506.54-7.284.682Zm30.026.572v-1.111h-6.871c.111-1.111.142-2.301.158-3.555h5.809v-1.095H164.58v1.095h5.237c-.016 1.254-.048 2.444-.159 3.555h-6.062v1.111h5.919c-.507 3.079-1.92 5.427-6.11 6.697.27.238.619.698.746.984 4.523-1.46 6.031-4.174 6.555-7.681h7.014Zm-4.697 6.332c-.825 0-.984-.111-.984-.635v-5.047h-1.206v5.031c0 1.413.444 1.794 2.095 1.794h2.983c1.524 0 1.889-.651 2.063-3.159-.333-.095-.857-.285-1.142-.507-.096 2.158-.223 2.523-1 2.523h-2.809Zm9.411-8.253h1.857v-1.126h-1.857v-3.603h-1.111v3.603h-2.032v1.126h2.032v5.031c-.825.349-1.587.651-2.174.857l.46 1.175c1.396-.619 3.19-1.413 4.872-2.19l-.238-1.048c-.619.238-1.222.508-1.809.762v-4.587Zm5.316 8.158c-1.031 0-1.238-.207-1.238-1.048v-5.491l2.127-.904v5.348h1.127v-5.825l2.206-.936c0 2.523-.032 4.285-.111 4.666-.08.349-.238.413-.477.413-.174 0-.682 0-1.063-.016.143.254.238.698.286 1.015.444 0 1.047 0 1.492-.111.444-.111.761-.396.841-1.047.127-.603.158-2.968.158-5.936l.064-.222-.825-.317-.223.174-.253.223-2.095.872v-3.935h-1.127v4.412l-2.127.888v-3.824h-1.126v4.316l-1.714.714.46 1.032 1.254-.524v4.999c0 1.698.539 2.127 2.332 2.127h3.889c1.666 0 2.031-.698 2.221-2.857a3.011 3.011 0 0 1-1.063-.46c-.111 1.825-.27 2.254-1.19 2.254h-3.825Zm12.728-4.476-2 .794v-4.476h2.064v-1.126h-2.064v-3.587h-1.111v3.587h-2.158v1.126h2.158v4.904c-.872.334-1.682.635-2.317.873l.429 1.143a348.256 348.256 0 0 0 5.221-2.206l-.222-1.032Zm5.539 4.206v-6.205h3.412v-1.127h-3.412v-5.364h-1.175v12.696h-2.333v-9.348h-1.158v9.348h-1.936v1.127h10.236v-1.127h-3.634Zm6.792 2.174c1.666-.587 2.746-1.888 2.746-3.602 0-1.111-.476-1.826-1.349-1.826-.651 0-1.206.397-1.206 1.143s.539 1.127 1.19 1.127c.095 0 .174 0 .27-.016-.08 1.079-.778 1.825-2 2.333l.349.841Zm15.061-13.934c.841.746 1.888 1.793 2.38 2.46l.81-.857c-.508-.635-1.571-1.635-2.413-2.333l-.777.73Zm1.222 13.22c.238-.317.651-.651 3.333-2.73a4.083 4.083 0 0 1-.413-1l-2.825 2.111-.317.508.222 1.111Zm-2.254-9.332v1.159h3.079v-1.159h-3.079Zm2.254 9.332c0-.444 1.285-1.365 1.285-1.365v-7.967h-1.142v6.967c0 .699-.476 1.175-.778 1.349.222.238.524.73.635 1.016Zm4.666-5.19v.857h5.554v-.857h-5.554Zm-1.508-7.871v.904h8.681v-.904h-8.681Zm.381 1.92v.873h7.808v-.873h-7.808Zm-.857 1.984v.904h9.633v-.904h-9.633Zm1.968 6.11v.873h5.602v-.873h-5.602Zm-.841-4.269v7.586h1.126v-6.666h5.333v-.92h-6.459Zm6.094 0v6.253c0 .206-.064.269-.286.269-.206.016-.968.016-1.777-.015.142.301.301.745.349 1.031 1.127.016 1.841 0 2.285-.174.444-.175.571-.492.571-1.096v-6.268h-1.142Zm-3.079-6.999v5.444h1.19v-5.444h-1.19Zm10.554 3.983v1.064h3.174c-.857 1.396-2.079 2.46-3.651 3.19.254.222.651.698.794.936 1.825-.952 3.206-2.301 4.158-4.126h1.762c.872 1.634 2.364 3.142 3.904 3.904.19-.286.555-.714.809-.921-1.365-.571-2.682-1.714-3.507-2.983h3.11v-1.064h-5.586c.254-.634.46-1.301.635-2.031 1.571-.206 3.047-.476 4.189-.841l-.92-.905c-1.857.603-5.38.968-8.332 1.143.143.27.27.714.318 1a71.22 71.22 0 0 0 3.507-.27 12.801 12.801 0 0 1-.635 1.904h-3.729Zm.222-2.142c-.54-.555-1.651-1.222-2.539-1.635l-.683.842c.905.444 2 1.174 2.523 1.713l.699-.92Zm-.667 4.095c-.571-.492-1.714-1.111-2.65-1.492l-.667.857c.953.428 2.095 1.095 2.651 1.603l.666-.968Zm-1.904 8.411c.698-1.413 1.476-3.254 2.063-4.825l-.936-.651c-.651 1.683-1.556 3.635-2.19 4.793l1.063.683Zm4.285-5.587c-.334 1.238-.984 2.635-1.968 3.444l.857.667c1.079-.921 1.682-2.444 2.079-3.793l-.968-.318Zm1.968 4.476c0 .19-.032.238-.254.254-.222.016-.905.016-1.698-.016.142.317.301.746.349 1.047 1.063 0 1.745 0 2.158-.174.429-.175.54-.508.54-1.095v-6.142h-1.095v6.126Zm1.793-3.873c.508 1.064.936 2.46 1.079 3.397l.952-.365c-.143-.921-.603-2.302-1.126-3.365l-.905.333Zm1.968-.38c.92 1.206 1.888 2.856 2.269 3.935l.984-.507c-.397-1.096-1.365-2.698-2.349-3.873l-.904.445Zm11.569-5.952h-3.507c.016-.904.032-1.825.032-2.761h-1.159c0 .936 0 1.857-.016 2.761h-2.222v1.159h2.19c-.126 3.967-.603 7.475-2.57 9.554.285.174.714.555.888.809 2.143-2.317 2.682-6.11 2.825-10.363h2.396c-.111 6.078-.253 8.236-.618 8.681-.112.222-.27.27-.524.254-.286 0-.968 0-1.698-.064.206.333.317.841.349 1.19.698.048 1.428.048 1.857-.015.476-.048.761-.191 1.047-.603.492-.683.603-2.984.73-9.999v-.603Zm2.412 8.983v-8.856h3.079v8.856h-3.079Zm-1.111-9.998v12.283h1.111v-1.158h3.079v1.047h1.175v-12.172h-5.365Z" fill="#000"/><path d="M239 80.2c.2-.5.2-1.1.2-1.7-.2-2.1-1.8-3.8-3.9-4.3-.7-.2-1.5-.2-2.1 0-.4-2.1-2.4-3.8-4.8-3.8-2.5 0-4.6 1.8-4.8 4-.5-.1-1-.1-1.5 0-2.4.3-4.2 2.2-4.4 4.4 0 .4 0 .8.1 1.1.2 1.1 1.2 1.9 2.4 1.9h16.6c1 0 1.9-.7 2.2-1.6ZM151.4 101.9c.2-.5.2-1.1.2-1.7-.2-2.1-1.8-3.9-3.9-4.4-.7-.2-1.5-.2-2.1 0-.4-2.2-2.4-3.8-4.8-3.8-2.5 0-4.6 1.8-4.8 4.1-.5-.1-1-.1-1.5 0-2.4.3-4.2 2.2-4.4 4.5 0 .4 0 .8.1 1.1.2 1.1 1.2 1.9 2.4 1.9H149c1.1 0 2.1-.7 2.4-1.7Z" fill="#fff" stroke="#0C296E" stroke-width=".5" stroke-miterlimit="10" stroke-linecap="round" stroke-linejoin="round"/><path d="M213.1 90.1c0 9.8-5.4 17.8-11.1 25-6.1 7.7-22.2 27.3-22.2 27.3s-17-21.7-22.6-29.2c-1.3-1.8-4.1-5.5-5.3-7.4-2.5-4.6-4-9.9-4-15.6 0-18 14.6-32.6 32.6-32.6s32.6 14.5 32.6 32.5Z" fill="#00D6B9"/><path d="M179.5 142.1s-16.7-21.4-22.3-28.9" stroke="#0C296E" stroke-width=".757" stroke-miterlimit="10" stroke-linecap="round" stroke-linejoin="round"/><path d="M151.9 105.7c-2.5-4.7-4-10-4-15.6 0-18 14.6-32.6 32.6-32.6s32.6 14.6 32.6 32.6c0 9.8-5.4 17.8-11.1 25-2.2 2.8-5.9 7.4-9.6 12.1" stroke="#0C296E" stroke-width=".5" stroke-miterlimit="10" stroke-linecap="round" stroke-linejoin="round"/><path d="M180.5 105.4c8.671 0 15.7-7.03 15.7-15.7 0-8.67-7.029-15.7-15.7-15.7s-15.7 7.03-15.7 15.7c0 8.67 7.029 15.7 15.7 15.7Z" fill="#fff" stroke="#0C296E" stroke-width=".5" stroke-miterlimit="10" stroke-linecap="round" stroke-linejoin="round"/><path d="M158.8 142.6c8.45 0 15.3-6.85 15.3-15.3 0-8.45-6.85-15.3-15.3-15.3-8.45 0-15.3 6.85-15.3 15.3 0 8.45 6.85 15.3 15.3 15.3Z" fill="#FFC60A"/><path d="m151.732 126.09-.018 2.3 14.1.107.018-2.3-14.1-.107Z" fill="#fff"/><path d="m157.677 120.234-.107 14.1 2.3.017.107-14.1-2.3-.017Z" fill="#fff"/><path d="m256.1 90.9-2.3 1.7M250.6 94.9l-2.3 1.8M249.3 89.9l1.7 2.3M253.4 95.3l1.7 2.4M129.7 127.5l-.1 2.9M129.5 134.3v2.9M124.7 132.3h2.9M131.5 132.399l2.9.1" stroke="#0C296E" stroke-width=".5" stroke-miterlimit="10" stroke-linecap="round" stroke-linejoin="round"/><path d="m258.7 111.3-18.3 13.3c-2.5 1.8-3.2 5.2-1.7 7.9l3.4 6 .5.8 3.4 6c1.5 2.7 4.8 3.8 7.6 2.7l21.7-9.1c1.4-.6 1.5-2 1.3-3.6-1.2-6.4-6.9-17.9-13.3-23.8-1.3-1-3.3-1.2-4.6-.2Z" fill="#FFC60A"/><path d="M258.5 119.6a1.1 1.1 0 1 0 .001-2.199 1.1 1.1 0 0 0-.001 2.199ZM265.9 123.9a.7.7 0 1 0 .001-1.399.7.7 0 0 0-.001 1.399ZM263.7 131.1a1.7 1.7 0 1 0 0-3.4 1.7 1.7 0 0 0 0 3.4ZM248.9 131.3a1.2 1.2 0 1 0 0-2.4 1.2 1.2 0 0 0 0 2.4ZM249.4 141.3a1.2 1.2 0 1 0 0-2.4 1.2 1.2 0 0 0 0 2.4ZM270 137.2a1.9 1.9 0 1 0 0-3.8 1.9 1.9 0 0 0 0 3.8Z" fill="#FF840A"/><path d="m245.7 173.5-53.2 29.7c-6.6 3.7-14.9 2.8-20.6-2.1-10.3-9-17.2-21.3-19.5-34.9-1.2-7.5 2.4-14.9 9-18.6l53.2-29.7c3.6-2 7.9-2.4 11.8-1.1l9.1 3.1c.9.3 1.9.2 2.7-.2l8.1-4.5 9 16.5 9.3 16.3-8.1 4.5c-.8.5-1.4 1.2-1.6 2.2l-2.2 9.4c-.8 3.9-3.4 7.3-7 9.4Z" stroke="#0C296E" stroke-width=".5" stroke-miterlimit="10" stroke-linecap="round" stroke-linejoin="round"/><path d="m263.6 149.3-19.1-34.2c-.4-.7-.1-1.6.6-2l3.4-1.9c.7-.4 1.6-.1 2 .6l19.1 34.2c.4.7.1 1.6-.6 2l-3.4 1.9c-.7.4-1.6.1-2-.6Z" fill="#fff" stroke="#0C296E" stroke-width=".5" stroke-miterlimit="10" stroke-linecap="round" stroke-linejoin="round"/><path d="M189.2 136.1 162.5 151c-2.6 1.4-5.1 6.2-5.2 11-.2 13.5 6.5 26.2 17.4 34.1 5.1 3.8 12.1 5.7 15.2 4l55.7-31.1-56.4-32.9Z" fill="#69C7F9"/><path d="M245.7 168.9 189.9 200c-3.1 1.8-10.1-.2-15.2-4-10.9-8-17.5-20.6-17.4-34.1.1-4.8 2.6-9.6 5.2-11l9.1-5.1c3.4 1.2 6.9 2.7 10.5 4.5 18.4 8.8 32.3 9.5 44.6 7.6l19 11Z" fill="#C5E6F9"/><path d="M246.246 168.553c2.68-4.829-7.989-15.869-23.828-24.659-15.84-8.789-30.853-11.999-33.533-7.17-2.679 4.829 7.989 15.869 23.829 24.658 15.839 8.79 30.852 12 33.532 7.171Z" fill="#A9DDF9"/><path d="M246.2 168.5c-2.7 4.8-17.7 1.7-33.5-7.1-1.9-1-3.7-2.1-5.4-3.2 7.1.9 13.4.6 19.4-.3 4.2-.6 8.2-1.6 12.1-2.6 6 5.4 9 10.4 7.4 13.2Z" fill="#E8F3F9"/><path d="M216.6 177.7a1.5 1.5 0 1 0 0-3 1.5 1.5 0 0 0 0 3ZM191.2 166.3a.8.8 0 1 0 0-1.6.8.8 0 0 0 0 1.6ZM175.7 154l1.6-1.7-.4-2.4 1.7 1.6 2.4-.4-1.6 1.8.4 2.3-1.8-1.6-2.3.4ZM178.3 186.1l1.1-1.2-.3-1.7 1.3 1.1 1.7-.3-1.2 1.3.3 1.6-1.2-1.1-1.7.3ZM183.7 166.801l1.3 2.3h-2.6l1.3-2.3ZM170.2 163.401l-1.8-.6 1.4-1.2.4 1.8ZM203.1 178.3l2.2-.6-.6 2.3-1.6-1.7ZM193.1 184.7a.9.9 0 1 0 0-1.8.9.9 0 0 0 0 1.8ZM174.4 178.501a.6.6 0 1 0-.001-1.201.6.6 0 0 0 .001 1.201ZM192.6 157.6a.7.7 0 1 0 .001-1.399.7.7 0 0 0-.001 1.399Z" fill="#fff"/><path d="M223.5 121.6c-2.3-.9-7.1 1.1-13.2 4.8" stroke="#0C296E" stroke-width="1.333" stroke-miterlimit="10" stroke-linecap="round" stroke-linejoin="round"/><path d="M206.7 129.7a1.3 1.3 0 1 0 0-2.6 1.3 1.3 0 0 0 0 2.6Z" fill="#0C296E"/><path d="M140.8 164a1.5 1.5 0 1 0-.001-3.001A1.5 1.5 0 0 0 140.8 164ZM251.2 180.2a1.5 1.5 0 1 0 .001-2.999 1.5 1.5 0 0 0-.001 2.999ZM268.1 178.7l-2.6 3.9-2-4.1 4.6.2ZM264.2 163l-3.5-.9 2.6-2.6.9 3.5ZM145.5 149.4l-3.3-.5 2.1-2.5 1.2 3Z" fill="#fff" stroke="#0C296E" stroke-width=".5" stroke-miterlimit="10"/><path d="M233.1 183s-1 13.3-14 17.3M238.6 186.7s-.3 11.3-11.2 15.2M243.3 188.2s.6 11.3-10 16M100.4 158.9c6-6.5 33.6-32.3 82.9-8.6 49.3 23.7 66.6-11.1 106.4 2.5 6.2 2.1 13.1 5 22.7 12.9" stroke="#0C296E" stroke-miterlimit="10" stroke-linecap="round" stroke-linejoin="round"/></svg>