<svg viewBox="0 0 400 300" fill="none" xmlns="http://www.w3.org/2000/svg"><path d="M150.823 229.991v1.055h6.347v-1.055h-6.347Zm3.113.449v4.739h1.21v-4.739h-1.21Zm-10.204 5.102v6.486h1.245v-5.448h8.786v5.396h1.297v-6.434h-11.328Zm.865 2.456v.934h9.546v-.934h-9.546Zm0 2.387v1.02h9.598v-1.02h-9.598Zm11.38-14.026c-1.297.432-3.58.743-5.483.899.121.277.26.692.312.951 1.954-.121 4.323-.415 5.88-.882l-.709-.968Zm-5.483.899v2.594c0 1.419-.138 3.304-1.262 4.705.276.103.795.449 1.003.639 1.176-1.47 1.418-3.701 1.418-5.326v-2.612h-1.159Zm-8.855 0v1.021h8.025v-1.021h-8.025Zm4.099 1.747v6.191h1.211v-6.191h-1.211Zm-3.493 2.421c0-.242.674-.622.674-.622v-.035c1.072-1.055 2.248-2.715 3.148-4.341l-1.297-.363c-.623 1.47-1.73 3.044-2.041 3.441-.329.398-.605.692-.882.744.138.329.328.917.398 1.176Zm0 0c.155-.138.691-.242 1.418-.242h6.018v-1.038h-6.745l-.691.346v.934Zm-.588 1.557.121 1.107c2.04-.243 4.981-.554 7.817-.865v-.986c-2.975.294-6.001.588-7.938.744Zm32.721.622v-1.21h-7.488c.121-1.211.155-2.508.173-3.874h6.329v-1.194h-13.334v1.194h5.707c-.017 1.366-.051 2.663-.173 3.874h-6.606v1.21h6.451c-.554 3.355-2.093 5.915-6.659 7.299.294.259.675.761.813 1.072 4.929-1.591 6.572-4.549 7.143-8.371h7.644Zm-5.119 6.901c-.899 0-1.072-.121-1.072-.692v-5.5h-1.315v5.483c0 1.539.485 1.954 2.283 1.954h3.252c1.66 0 2.058-.709 2.248-3.442-.363-.103-.934-.311-1.245-.553-.104 2.352-.242 2.75-1.09 2.75h-3.061Zm20.927-13.87c-.416 1.003-1.211 2.386-1.834 3.268l1.107.467c.623-.847 1.366-2.11 1.954-3.234l-1.227-.501Zm-10.36 6.226c-.657-.606-1.989-1.419-3.061-1.955l-.727.9c1.073.57 2.387 1.452 3.027 2.075l.761-1.02Zm-2.162 8.906a62.248 62.248 0 0 0 2.767-5.603l-.951-.778c-.882 1.954-2.093 4.22-2.923 5.569l1.107.812Zm-.813-14.544c1.055.57 2.335 1.452 2.94 2.092l.796-1.003c-.64-.605-1.937-1.453-2.992-1.971l-.744.882Zm7.437 2.663c-.277-.882-1.055-2.196-1.799-3.165l-1.089.502c.726.985 1.47 2.352 1.729 3.234l1.159-.571Zm-1.141 7.195v-1.851h6.347v1.851h-6.347Zm6.347-4.808v1.833h-6.347v-1.833h6.347Zm1.245-1.211h-3.736v-4.912h-1.262v4.912h-3.857v10.896h1.263v-3.771h6.347v2.128c0 .242-.087.328-.363.346-.26 0-1.176 0-2.162-.035.173.363.363.882.415 1.228 1.314 0 2.162 0 2.698-.208.501-.224.657-.588.657-1.314v-9.27Zm14.631-1.072h-8.024v-1.401h8.024v1.401Zm0 2.421h-8.024v-1.435h8.024v1.435Zm0 2.404h-8.024v-1.436h8.024v1.436Zm1.297-7.247h-5.223c.225-.397.467-.864.709-1.331l-1.487-.26c-.121.433-.363 1.073-.571 1.591H196.1v8.267h10.567v-8.267Zm-7.09 9.132c1.003.709 2.11 1.747 2.611 2.525l.986-.744c-.519-.778-1.643-1.764-2.646-2.421l-.951.64Zm-5.223 4.67c1.141-.934 1.816-2.422 2.231-3.771l-1.107-.415c-.381 1.246-1.107 2.646-2.162 3.459l1.038.727Zm5.793-.675c-.934 0-1.072-.086-1.072-.536v-2.836h-1.262v2.836c0 1.332.466 1.678 2.248 1.678h3.355c1.435 0 1.816-.45 1.989-2.352-.346-.087-.882-.26-1.176-.45-.052 1.453-.173 1.66-.899 1.66h-3.183Zm4.981-3.044c1.245 1.09 2.542 2.646 3.079 3.719l1.089-.709c-.553-1.107-1.902-2.595-3.165-3.65l-1.003.64Zm15.185-6.191v1.522h-2.906v-1.522h2.906Zm4.168 1.522h-3.009v-1.522h3.009v1.522Zm-3.009 2.525v-1.574h3.009v1.574h-3.009Zm-4.065 0v-1.574h2.906v1.574h-2.906Zm0 .986h2.906v2.801h1.159v-2.801h3.009v1.573c0 .225-.069.294-.294.294-.208 0-.951.018-1.764-.017.156.294.311.744.363 1.055 1.159 0 1.885-.017 2.335-.19.45-.19.588-.502.588-1.124v-7.61h-2.179c-.381-.208-.83-.45-1.332-.692 1.28-.64 2.577-1.504 3.494-2.369l-.796-.606-.242.07h-8.44v1.02h7.212a13.198 13.198 0 0 1-2.369 1.366 41.067 41.067 0 0 0-2.404-.951l-.813.727c1.037.38 2.265.933 3.286 1.435h-4.929v8.889h1.21v-2.87Zm-2.611-7.16c-.554-.848-1.833-2.007-2.923-2.785l-.899.796c1.089.812 2.335 2.023 2.871 2.871l.951-.882Zm-.381 3.597h-3.735v1.21h2.49v4.445c-.882.709-1.868 1.436-2.698 1.954l.623 1.246a46.344 46.344 0 0 0 2.784-2.231c1.055 1.366 2.612 1.971 4.877 2.058 1.903.086 5.569.052 7.489-.035.069-.38.259-.968.398-1.262-2.058.138-6.001.19-7.887.103-2.023-.069-3.51-.639-4.341-1.937v-5.551Zm18.454-3.269h2.732v-1.193h-4.929c.208-.657.398-1.349.537-2.076l-1.246-.242c-.415 2.093-1.124 4.151-2.144 5.483.294.173.83.519 1.055.743.536-.743.986-1.677 1.401-2.715h1.314V233.104h-3.563v1.228h3.477c-.225 2.265-1.038 4.756-3.667 6.624.277.19.726.674.899.951 1.972-1.401 3.027-3.269 3.58-5.102.934 1.055 2.283 2.681 2.871 3.528l.865-1.09c-.536-.605-2.629-2.94-3.442-3.753.07-.38.139-.778.173-1.158h3.321v-1.228h-3.251c.017-.208.017-.415.017-.588v-2.854Zm5.033 9.218v-10.013h3.649v10.013h-3.649Zm-1.246-11.224v13.801h1.246v-1.366h3.649v1.193h1.28v-13.628h-6.175Z" fill="#000"/><path d="M194.7 142.899H183v73.2h11.7v-73.2Z" fill="#FFFCFD" stroke="#0C296E" stroke-width=".5" stroke-miterlimit="10"/><path d="M194.7 142.899h-5.6v73.2h5.6v-73.2Z" fill="#FFFCFD" stroke="#0C296E" stroke-width=".5" stroke-miterlimit="10"/><path d="M242 149.4H131.2v-33.2c0-15.5 12.6-28.1 28.1-28.1h54.5c15.5 0 28.1 12.6 28.1 28.1v33.2h.1Z" fill="#fff" stroke="#0C296E" stroke-width=".5" stroke-miterlimit="10"/><path d="M132.7 115.399H242" stroke="#0C296E" stroke-width=".5" stroke-miterlimit="10"/><path d="M200.5 117.1a4.5 4.5 0 1 0 0-9 4.5 4.5 0 0 0 0 9Z" fill="#0C296E"/><path d="M203.8 79.9H200v32.299h3.8v-32.3Z" fill="#FFFCFD" stroke="#0C296E" stroke-width=".5" stroke-miterlimit="10"/><path d="M201.9 116.999a4.5 4.5 0 1 0 0-9 4.5 4.5 0 0 0 0 9ZM201.9 83.6 190.3 72c-2.7-2.7-2.7-7.1 0-9.8 2.7-2.7 7.1-2.7 9.8 0l1.8 1.8 1.8-1.8c2.7-2.7 7.1-2.7 9.8 0 2.7 2.7 2.7 7.1 0 9.8l-11.6 11.6Z" fill="#FFFCFD" stroke="#0C296E" stroke-width=".5" stroke-miterlimit="10"/><path d="M183.6 114.3v35H131v-35c0-14.5 11.8-26.3 26.3-26.3 7.3 0 13.8 2.9 18.6 7.7 4.7 4.8 7.7 11.4 7.7 18.6Z" fill="#FFB01C"/><path d="M183.6 114.3v10.9l-.1 4.5-52.5 17.2v-32.6c0-14.5 11.8-26.3 26.3-26.3 7.3 0 13.8 2.9 18.6 7.7 4.7 4.8 7.7 11.4 7.7 18.6Z" fill="#FFC60A"/><path d="M183.6 146.9h-89v2.7h89v-2.7Z" fill="#0C296E"/><path d="m242.8 64.9-5 18.3c-.8 2.8.9 5.6 3.6 6.4l27.1 7.4 4.4 3.7-.3-3.1c1.8-.4 3.4-1.8 3.9-3.7l5-18.3c.8-2.8-.9-5.6-3.6-6.4l-28.8-7.9c-2.7-.8-5.6.9-6.3 3.6Z" fill="#FFFCFD" stroke="#0C296E" stroke-width=".5" stroke-miterlimit="10"/><path d="M268.6 65.4 265 83.1c-1 5.6-4.1 7.2-9.2 6.1L226.1 83c-.4-.1-.8-.1-1.1 0l-6.3.5 3.8-2.7c-1.7-1.2-2.6-3.3-2.2-5.3l3.9-19.1c.6-2.9 3.6-4.7 6.8-4.1l32.9 6.6c3.2.7 5.3 3.6 4.7 6.5Z" fill="#0C296E"/><path d="m267.5 62.6-4.2 20.8c-.6 3.2-3.7 5.2-6.9 4.6l-31-6.2-6.3 1.4 1.9-3c-1.7-1.3-2.5-3.5-2.1-5.7l4.2-20.8c.6-3.2 3.7-5.2 6.9-4.6l32.9 6.6c3.2.7 5.2 3.8 4.6 6.9Z" fill="#FFFCFD" stroke="#0C296E" stroke-width=".5" stroke-miterlimit="10"/><path d="M230.7 70.6a3.9 3.9 0 1 0 0-7.8 3.9 3.9 0 0 0 0 7.8ZM243 73.4a3.9 3.9 0 1 0 0-7.8 3.9 3.9 0 0 0 0 7.8ZM255.5 75.9a3.9 3.9 0 1 0 0-7.8 3.9 3.9 0 0 0 0 7.8Z" fill="#FFFCFD" stroke="#0C296E" stroke-width=".464" stroke-miterlimit="10"/><path d="M281 91.3c6.075 0 11-4.925 11-11s-4.925-11-11-11-11 4.925-11 11 4.925 11 11 11Z" fill="#00D6B9"/><path d="M277.9 78.2c0-1.7 1.4-3.2 3.1-3.2 1.7 0 3.1 1.4 3.1 3.1 0 1.4-.9 2.5-2.1 3-.6.2-1 .8-1 1.4v.1" stroke="#fff" stroke-width="1.629" stroke-miterlimit="10" stroke-linecap="round" stroke-linejoin="round"/><path d="M281 86.2a1.1 1.1 0 1 0 0-2.2 1.1 1.1 0 0 0 0 2.2Z" fill="#FFFCFD"/><path d="M114.2 56.2c-.8.6-1.5 1.2-2.2 1.9" stroke="#0C296E" stroke-width=".5" stroke-linecap="round" stroke-linejoin="round"/><path d="M108.2 62.3C97.6 77 97.6 102.6 123.3 111c29.9 9.7 21.1-21.1-7.5-8.1-27.3 12.4-3.6 39.4 37.1 40.3" stroke="#0C296E" stroke-width=".5" stroke-linecap="round" stroke-linejoin="round" stroke-dasharray="5.7 5.7"/><path d="M155.8 143.3c1 0 1.9 0 2.9-.1M208.2 158.3c.9-.3 1.8-.6 2.8-.8" stroke="#0C296E" stroke-width=".5" stroke-linecap="round" stroke-linejoin="round"/><path d="M216.9 156.9c14.4-.2 33.3 7.7 30.8 26.7-2.9 21.7-23.6 13.6-6.3 0 16.2-12.8 41.5 10.5 38.9 40" stroke="#0C296E" stroke-width=".5" stroke-linecap="round" stroke-linejoin="round" stroke-dasharray="5.93 5.93"/><path d="M279.9 226.601c-.1 1-.3 1.9-.5 2.9" stroke="#0C296E" stroke-width=".5" stroke-linecap="round" stroke-linejoin="round"/><path d="M267 226c2.2.6 3.3 2.6 3.3 2.6s-2.3 1.6-4.5 1c-2.2-.6-3.3-3.2-3.3-3.2s2.4-1 4.5-.4ZM153 164.7c-2.7-1.8-6-1.5-6-1.5s.5 4.6 3.1 6.3c2.7 1.8 6.5.1 6.5.1s-.9-3.1-3.6-4.9Z" fill="#00D6B9"/><path d="M163 82a1.6 1.6 0 1 0 0-3.2 1.6 1.6 0 0 0 0 3.2ZM275.3 158.799a1.7 1.7 0 1 0 0-3.4 1.7 1.7 0 0 0 0 3.4ZM130.2 193.899l-.9-2.4-2.4-.8 2.4-.8.7-2.5.9 2.4 2.4.8-2.4.8-.7 2.5Z" fill="#fff" stroke="#0C296E" stroke-width=".5" stroke-miterlimit="10"/><path d="M114.2 178.2c.2-.6.2-1.1.2-1.8-.1-2.2-1.7-4-3.8-4.5-.7-.2-1.4-.2-2.1 0-.4-2.2-2.3-3.9-4.7-3.9-2.5 0-4.5 1.8-4.7 4.2-.5-.1-1-.1-1.5 0-2.3.3-4.1 2.3-4.3 4.6 0 .4 0 .8.1 1.2.2 1.1 1.2 2 2.3 2H112c.9-.1 1.9-.8 2.2-1.8ZM276.7 127.5c.2-.6.2-1.1.2-1.8-.1-2.2-1.7-4-3.8-4.5-.7-.2-1.4-.2-2.1 0-.4-2.2-2.3-3.9-4.7-3.9-2.5 0-4.5 1.8-4.7 4.2-.5-.1-1-.1-1.5 0-2.3.3-4.1 2.3-4.3 4.6 0 .4 0 .8.1 1.2.2 1.1 1.2 2 2.3 2h16.3c1-.1 1.9-.7 2.2-1.8Z" fill="#FFFCFD" stroke="#0C296E" stroke-width=".5" stroke-miterlimit="10"/></svg>