<svg viewBox="0 0 400 300" fill="none" xmlns="http://www.w3.org/2000/svg"><path d="M143.608 234.88v1.086h6.537v-1.086h-6.537Zm3.206.463v4.88h1.247v-4.88h-1.247Zm-10.508 5.254v6.679h1.283v-5.611h9.047v5.557h1.336v-6.625h-11.666Zm.891 2.529v.962h9.831v-.962h-9.831Zm0 2.458v1.05h9.884v-1.05h-9.884Zm11.719-14.444c-1.336.445-3.687.766-5.646.926.125.285.267.712.321.979 2.012-.124 4.452-.427 6.055-.908l-.73-.997Zm-5.646.926v2.671c0 1.461-.142 3.402-1.3 4.845.285.107.819.463 1.033.659 1.211-1.514 1.46-3.812 1.46-5.486v-2.689h-1.193Zm-9.119 0v1.051h8.264v-1.051h-8.264Zm4.221 1.799v6.376h1.247v-6.376h-1.247Zm-3.597 2.493c0-.249.694-.641.694-.641v-.036c1.104-1.086 2.315-2.796 3.242-4.47l-1.336-.374c-.641 1.514-1.781 3.134-2.102 3.544-.338.41-.623.713-.908.766.142.338.338.944.41 1.211Zm0 0c.16-.142.712-.249 1.46-.249h6.198v-1.069h-6.946l-.712.356v.962Zm-.606 1.603.125 1.14c2.101-.25 5.129-.57 8.05-.891v-1.015c-3.063.303-6.18.606-8.175.766Zm33.697.641v-1.247h-7.712c.125-1.246.16-2.582.178-3.989h6.519v-1.229h-13.732v1.229h5.877c-.018 1.407-.053 2.743-.178 3.989h-6.803v1.247h6.643c-.57 3.455-2.155 6.091-6.857 7.516.303.267.695.784.837 1.104 5.076-1.638 6.768-4.684 7.356-8.62h7.872Zm-5.272 7.106c-.926 0-1.104-.124-1.104-.712v-5.664h-1.354v5.646c0 1.585.499 2.013 2.351 2.013h3.348c1.71 0 2.12-.731 2.316-3.545-.374-.106-.962-.32-1.283-.569-.106 2.422-.249 2.831-1.122 2.831h-3.152Zm18.896-10.472c-.908 2.511-2.155 4.559-3.793 6.216-1.692-1.728-2.957-3.829-3.829-6.216h7.622Zm4.275 0v-1.3h-7.391v-3.01h-1.336v3.01h-7.249v1.3h2.618c1.015 2.832 2.405 5.236 4.239 7.177-1.906 1.568-4.239 2.708-7.07 3.527.284.303.712.944.837 1.264 2.867-.926 5.271-2.155 7.23-3.829 1.96 1.763 4.382 3.046 7.356 3.812.196-.374.623-.98.944-1.283-2.885-.677-5.29-1.888-7.231-3.526 1.852-1.87 3.259-4.221 4.31-7.142h2.743Zm5.681-4.239c-.944 2.69-2.511 5.343-4.167 7.071.231.303.623.979.748 1.3a20.083 20.083 0 0 0 1.638-2.084v9.885h1.265v-11.933a31.223 31.223 0 0 0 1.763-3.847l-1.247-.392Zm12.076 8.763h-4.827v-3.901h4.061v-1.3h-4.061v-3.402h-1.318v3.402h-2.369c.232-.801.428-1.638.588-2.475l-1.247-.268c-.409 2.298-1.139 4.613-2.19 6.074.338.16.89.481 1.14.676.48-.748.908-1.674 1.282-2.707h2.796v3.901h-5.076v1.3h5.076v6.144h1.318v-6.144h4.827v-1.3Zm3.722 7.979c1.87-.659 3.081-2.12 3.081-4.043 0-1.247-.534-2.048-1.514-2.048-.73 0-1.353.445-1.353 1.282s.605 1.264 1.335 1.264c.107 0 .196 0 .303-.017-.089 1.211-.873 2.048-2.244 2.618l.392.944Zm16.902-15.638c.944.837 2.119 2.013 2.671 2.761l.908-.962c-.569-.712-1.763-1.834-2.707-2.618l-.872.819Zm1.371 14.836c.267-.356.73-.73 3.74-3.063-.16-.249-.374-.766-.463-1.122l-3.17 2.369-.356.57.249 1.246Zm-2.529-10.472v1.3h3.455v-1.3h-3.455Zm2.529 10.472c0-.498 1.443-1.531 1.443-1.531v-8.941h-1.283v7.819c0 .783-.534 1.317-.872 1.513.249.268.587.82.712 1.14Zm5.236-5.824v.962h6.234v-.962h-6.234Zm-1.692-8.833v1.015h9.742v-1.015h-9.742Zm.428 2.155v.979h8.762v-.979h-8.762Zm-.962 2.226v1.015h10.811v-1.015h-10.811Zm2.208 6.857v.979h6.287v-.979h-6.287Zm-.944-4.791v8.513h1.265v-7.48h5.984v-1.033h-7.249Zm6.84 0v7.017c0 .231-.072.303-.321.303-.232.018-1.086.018-1.995-.018.161.338.339.837.392 1.158 1.265.017 2.066 0 2.565-.196.498-.196.641-.552.641-1.229v-7.035h-1.282Zm-3.456-7.854v6.108h1.336v-6.108h-1.336Zm15.905 14.159v-7.053h6.625v-1.318h-6.625v-5.45h-1.389v13.821h-6.644v1.318h15.869v-1.318h-7.836Zm13.518-14.088c-.998 2.707-2.654 5.378-4.417 7.106.249.303.623 1.015.748 1.318 1.941-1.995 3.758-5.005 4.933-8.032l-1.264-.392Zm-1.888 4.595v11.701h1.3v-12.966l-.018-.018-1.282 1.283Zm5.592 4.167v1.247h6.608v-1.247h-6.608Zm6.18 0v.143c-.944 1.157-2.796 3.241-4.31 4.809l1.087.676a136.6 136.6 0 0 0 4.63-5.129l-.944-.588-.213.089h-.25Zm-4.399-8.727c-.748 3.099-1.995 7.445-2.903 9.974h1.443c.783-2.404 1.977-6.661 2.76-9.796l-1.3-.178Zm-4.007 1.977v1.229h9.956v-1.229h-9.956Zm-1.033 3.366v1.247h11.808v-1.247h-11.808Zm3.17 7.285c1.692 1.051 3.705 2.636 4.666 3.669l.998-.998c-.998-.997-2.975-2.458-4.702-3.473l-.962.802Z" fill="#000"/><path d="m115.5 85.7 1.3-4.7 3.4 3.5-4.7 1.2ZM283.7 146.6l-4.4 2.5V144l4.4 2.6ZM147.1 66.2a2.5 2.5 0 1 0 0-5 2.5 2.5 0 0 0 0 5Z" fill="#fff" stroke="#0C296E" stroke-width=".5" stroke-miterlimit="10"/><path d="M181.7 101.3a2 2 0 1 0 0-4 2 2 0 0 0 0 4ZM236.4 77.7a3 3 0 1 0 0-6 3 3 0 0 0 0 6Z" fill="#fff" stroke="#0C296E" stroke-width=".479" stroke-miterlimit="10"/><path d="m279.5 171-1.6-2.2-2.7-.1 2.2-1.6.1-2.8 1.6 2.3 2.7.1-2.2 1.6-.1 2.7Z" fill="#FFC60A"/><path d="M269.4 94.5v100c0 6.2-5 11.2-11.2 11.2l-121.1-.2v-111c0-5.7 4.6-10.4 10.4-10.4h111.7c5.6.1 10.2 4.7 10.2 10.4Z" fill="#00D6B9"/><path d="M244.1 70H156v127.1h94.3V77.3l-6.2-7.3Z" fill="#E6ECFF"/><path d="m243.2 77.1.9-7.1 6.2 7.3-7.1-.2Z" fill="#C2D4FF"/><path d="M233.7 88.8h-61.5V94h61.5v-5.2ZM230.9 99.2h-58.7v5.2h58.7v-5.2ZM220.2 109.8h-48v5.2h48v-5.2Z" fill="#D4D4D4"/><path d="M269.4 192.6v2c0 6.2-5 11.2-11.2 11.2l-121.1-1.6v-11.6h132.3Z" fill="#0C296E"/><path d="M127.9 205.4c-6.3-3.7-10.6-10-11.8-17.1L103.8 117c-1-3.7 1.8-7.4 5.7-7.4h46.8l2.9 6c2.5 5.2 7.9 8.5 13.7 8.4l57.7-.4c2.6 0 5 1.7 5.7 4.2l11.6 61c1.3 6.7 5.1 12.6 10.7 16.5H127.9v.1Z" fill="#fff" stroke="#0C296E" stroke-width=".5" stroke-miterlimit="10"/><path d="m187.9 166.3-10.4-17.6-10 17.7h5.8l.1 14.7 8.8-.1-.1-14.7h5.8Z" fill="#FFC60A"/><path d="M106.3 134.4h131.1" stroke="#0C296E" stroke-width=".5" stroke-miterlimit="10"/><path d="M296 70.8c.3-1.1.4-2.2.4-3.4-.3-4.1-3.3-7.7-7.3-8.6-1.4-.3-2.7-.3-4-.1-.7-4.3-4.5-7.5-9-7.5-4.8 0-8.7 3.5-9.1 8-.9-.1-1.8-.2-2.8 0-4.4.6-7.9 4.3-8.2 8.8-.1.8 0 1.5.1 2.2.4 2.2 2.3 3.8 4.5 3.8h31.2c1.9.1 3.7-1.3 4.2-3.2Z" fill="#00D6B9"/><path d="M266.4 68a2.3 2.3 0 1 0 0-4.6 2.3 2.3 0 0 0 0 4.6ZM276.1 68a2.3 2.3 0 1 0 0-4.6 2.3 2.3 0 0 0 0 4.6ZM285.9 68a2.3 2.3 0 1 0 0-4.6 2.3 2.3 0 0 0 0 4.6Z" fill="#fff"/><path d="M258.7 208.3c9.554 0 17.3-7.745 17.3-17.3 0-9.554-7.746-17.3-17.3-17.3-9.555 0-17.3 7.746-17.3 17.3 0 9.555 7.745 17.3 17.3 17.3Z" fill="#FFC60A"/><path d="m250.832 189.684-.02 2.6 15.9.121.02-2.6-15.9-.121Z" fill="#fff"/><path d="m257.483 183.035-.121 15.9 2.6.019.121-15.9-2.6-.019Z" fill="#fff"/><path d="M290.1 89.6c-2.7 15.901-16.5 19.001-16.1 12.101.3-4.7 13.7-5.1 7.7 19.5" stroke="#0C296E" stroke-width=".5" stroke-miterlimit="10" stroke-dasharray="2.51 2.51"/></svg>