<svg viewBox="0 0 400 300" fill="none" xmlns="http://www.w3.org/2000/svg"><path d="M162.411 242.099v-1.331h-7.331v-3.137h6.072V236.3h-6.072v-2.973h-1.405v2.973h-5.89v1.331h5.89v3.137h-7.203v1.331h6.437c-1.641 2.353-4.395 4.614-6.929 5.745.31.255.747.784.984 1.112 2.389-1.203 4.942-3.374 6.711-5.799v6.82h1.405v-6.893c1.769 2.425 4.358 4.687 6.765 5.872.237-.346.675-.875.985-1.13-2.535-1.113-5.307-3.392-6.966-5.727h6.547Zm6.182-4.267v1.222h3.647c-.985 1.605-2.389 2.826-4.194 3.665.292.256.748.803.912 1.076 2.097-1.094 3.683-2.644 4.778-4.741h2.024c1.003 1.878 2.717 3.611 4.486 4.486.219-.328.638-.821.93-1.058-1.568-.656-3.082-1.969-4.03-3.428h3.574v-1.222h-6.419c.292-.73.529-1.496.729-2.334 1.806-.237 3.502-.547 4.815-.967l-1.058-1.039c-2.133.693-6.182 1.112-9.574 1.313.164.31.31.82.365 1.149a81.075 81.075 0 0 0 4.03-.311 14.782 14.782 0 0 1-.729 2.189h-4.286Zm.255-2.462c-.62-.638-1.896-1.404-2.918-1.878l-.784.966c1.04.511 2.298 1.35 2.9 1.97l.802-1.058Zm-.766 4.705c-.656-.565-1.969-1.277-3.045-1.714l-.766.985c1.094.492 2.407 1.258 3.045 1.841l.766-1.112Zm-2.188 9.665c.802-1.623 1.696-3.738 2.371-5.544l-1.076-.747c-.748 1.933-1.787 4.176-2.517 5.507l1.222.784Zm4.924-6.419c-.383 1.423-1.131 3.027-2.262 3.957l.985.766c1.24-1.057 1.933-2.808 2.389-4.358l-1.112-.365Zm2.261 5.143c0 .219-.036.273-.292.292-.255.018-1.039.018-1.951-.019.164.365.347.857.401 1.204 1.222 0 2.006 0 2.48-.201.493-.2.62-.583.62-1.258v-7.058h-1.258v7.04Zm2.061-4.45c.583 1.222 1.076 2.827 1.24 3.903l1.094-.42c-.164-1.057-.693-2.644-1.295-3.866l-1.039.383Zm2.261-.438c1.058 1.386 2.17 3.283 2.608 4.523l1.131-.583c-.456-1.259-1.569-3.101-2.699-4.45l-1.04.51Zm13.295-6.838h-4.031c.019-1.04.037-2.098.037-3.173h-1.331c0 1.075 0 2.133-.019 3.173h-2.553v1.331h2.517c-.146 4.559-.693 8.589-2.954 10.978.328.201.82.639 1.021.93 2.462-2.662 3.082-7.021 3.246-11.908h2.754c-.128 6.985-.292 9.465-.712 9.975-.127.256-.31.31-.601.292-.329 0-1.113 0-1.952-.073.237.383.365.967.402 1.368.802.055 1.641.055 2.133-.018.547-.055.876-.219 1.204-.693.565-.784.693-3.429.839-11.489v-.693Zm2.772 10.322v-10.176h3.538v10.176h-3.538Zm-1.277-11.489v14.115h1.277v-1.332h3.538v1.204h1.349v-13.987h-6.164Zm8.662 1.969v1.277h5.344v-1.277h-5.344Zm2.061-4.286v16.76h1.313v-16.76h-1.313Zm3.83 3.465v1.332h7.623v-1.332h-7.623Zm7.094 0v.329c-.182 7.841-.365 10.668-.875 11.252-.183.237-.365.291-.693.291-.383 0-1.35-.018-2.389-.091.237.365.383.93.419 1.313.967.055 1.951.073 2.517.019.583-.073.966-.219 1.331-.73.638-.821.802-3.538 1.003-11.69v-.693h-1.313Zm-6.802 3.21c-.347 1.751-.93 3.465-1.751 4.632.31.183.821.529 1.039.73.839-1.277 1.551-3.192 1.934-5.107l-1.222-.255Zm8.243.292c.51 1.696 1.021 3.921 1.167 5.216l1.258-.31c-.182-1.277-.748-3.465-1.276-5.143l-1.149.237Zm-5.271-6.784v3.264c0 3.739-.328 8.681-4.905 12.438.328.2.82.62 1.039.93 4.778-3.994 5.161-9.319 5.161-13.368v-3.264h-1.295Zm13.459-.055c-1.021 2.772-2.699 5.489-4.505 7.24.256.292.657 1.04.785 1.35.62-.639 1.24-1.368 1.805-2.171v10.14h1.35v-12.237c.711-1.258 1.367-2.589 1.86-3.902l-1.295-.42Zm12.237 4.268v-1.295h-7.587c.365-.803.711-1.623 1.003-2.462l-1.295-.347c-.893 2.663-2.37 5.289-4.012 6.985.31.219.839.675 1.058.912.912-1.022 1.806-2.335 2.59-3.793h1.258v12.309h1.368v-4.413h5.452v-1.277h-5.452v-2.753h5.197v-1.259h-5.197v-2.607h5.617Zm8.954-3.775c-.128 2.407-.128 11.106-7.514 14.881.42.273.857.711 1.095 1.039 4.613-2.498 6.492-6.893 7.294-10.541.876 3.648 2.882 8.316 7.587 10.541.2-.365.62-.821 1.003-1.112-6.857-3.137-7.842-11.562-8.006-13.97.018-.31.018-.601.036-.838h-1.495Z" fill="#000"/><path d="m198.5 183.4-73.1 16.7c-1.5.3-2.9-.6-3.2-2L92.7 69c-.3-1.5.6-2.9 2-3.2l73.1-16.7c1.5-.3 2.9.6 3.2 2l29.5 129.1c.4 1.4-.5 2.9-2 3.2Z" fill="#fff" stroke="#0C296E" stroke-width=".5" stroke-miterlimit="10"/><path d="M125.5 192 98.4 73.5c-.4-1.5.6-3.1 2.1-3.4l63.9-14.6c1.5-.4 3.1.6 3.4 2.1L195 176.2c.4 1.5-.6 3.1-2.1 3.4L129 194.2c-1.6.3-3.2-.6-3.5-2.2Z" fill="#fff" stroke="#0C296E" stroke-width=".5" stroke-miterlimit="10"/><path d="m149 60.4-31 7.1c-1.5.3-3-.6-3.3-2.1l-.9-3.8 36.4-8.3.9 3.8c.3 1.5-.6 3-2.1 3.3Z" fill="#fff" stroke="#0C296E" stroke-width=".5" stroke-miterlimit="10"/><path d="m144.4 59.2-19.2 4.4c-.4.1-.8-.2-.9-.6l-.2-.7c-.1-.4.2-.8.6-.9l19.2-4.4c.4-.1.8.2.9.6l.2.7c.1.4-.1.8-.6.9ZM121.5 64.3a1 1 0 1 0 0-2 1 1 0 0 0 0 2Z" fill="#fff" stroke="#0C296E" stroke-width=".5" stroke-miterlimit="10"/><path d="m118.6 98.4 4.9-1.1s.1.8.5 1.6c.3.7.5-.8.5-.8s.2-.3.6-.3c.4.1 1.3 1 .2 1.9l-.6.2-2.6 3.8 6.2-1.6s-1.6-9.1-7.7-8.1c-6.2 1-4.8 10.8-4.8 10.8l6.3-1.2-3.1-2.2s-1 .5-1.6.3c-.7-.2-.9-1.7.3-1.9 0 0 .5 1 .6.7.1-.3.6-.5.3-2.1Z" fill="#B8B8B8"/><path d="m123.219 101.905-2.145.49 1.135 4.972 2.145-.49-1.135-4.972ZM125.88 100.167a1.3 1.3 0 1 0-.578-2.534 1.3 1.3 0 0 0 .578 2.534ZM117.5 102.168a1.3 1.3 0 1 0-.579-2.535 1.3 1.3 0 0 0 .579 2.535Z" fill="#B8B8B8"/><path d="M121.4 103.199a4 4 0 1 0 0-8 4 4 0 0 0 0 8ZM130.6 108.6c-1.4 2-3.6 3.5-6.1 4.1-2.6.6-5.1.2-7.3-1 .2-1.5.4-3.9.6-4.8.2-.8.5-1.5 1.4-1.7l2.1-.5v.5c.1.3.2.4.4.6.3.2.8.2 1.2.1.5-.1.8-.3.9-.6.1-.2.2-.5.1-.7 0-.2-.1-.3-.2-.4l1.9-.4c.9-.2 1.5.3 2 .9.9.7 2.2 2.7 3 3.9Z" fill="#B8B8B8"/><path d="M121.3 104.699c0 .2 0 .3.1.5.1.3.2.4.4.6.3.2.8.2 1.2.1.5-.1.8-.3.9-.6.1-.2.1-.5.1-.7 0-.1 0-.3-.1-.4M117.3 99.5c0 .1.2.1.3.2.4 1.599 1-.3 1.9-.2 2 .3 2.1-.6 3.2-.6 1.3-.1 2.6.4 2.5-.5 0-.6 0-.7.2-.7 0 0-1.6-3.3-5.1-2.4-2.7.6-3 3.3-3 4.2Z" fill="#B8B8B8"/><path d="M132.3 100.099c.7 3 0 6.101-1.7 8.401-1.4 2-3.6 3.499-6.1 4.099-2.6.6-5.1.2-7.3-1-2.5-1.4-4.5-3.799-5.2-6.799-1.3-5.6 2.2-11.2 7.9-12.5 5.5-1.3 11.1 2.2 12.4 7.799Z" stroke="#0C296E" stroke-width=".5" stroke-miterlimit="10" stroke-linecap="round" stroke-linejoin="round"/><path d="m133.3 159.4 4.9-1.1s.1.8.5 1.6c.3.7.5-.8.5-.8s.2-.3.6-.3c.4.1 1.3 1 .2 1.9l-.6.2-2.6 3.8 6.2-1.6s-1.6-9.1-7.7-8.1c-6.2 1-4.8 10.8-4.8 10.8l6.3-1.2-3.1-2.2s-1 .5-1.6.3c-.7-.2-.9-1.7.3-1.9 0 0 .5 1 .6.7.1-.3.5-.5.3-2.1Z" fill="#B8B8B8"/><path d="m138.112 162.851-2.73.624 1.135 4.972 2.73-.624-1.135-4.972ZM140.603 161.261a1.3 1.3 0 1 0-.579-2.535 1.3 1.3 0 0 0 .579 2.535ZM132.2 163.164a1.3 1.3 0 1 0-.578-2.534 1.3 1.3 0 0 0 .578 2.534Z" fill="#B8B8B8"/><path d="M136.1 164.199a4 4 0 1 0 0-8 4 4 0 0 0 0 8ZM145.3 169.6c-1.4 2-3.6 3.5-6.1 4.1-2.6.6-5.1.2-7.3-1 .2-1.5.4-3.9.6-4.8.2-.8.5-1.5 1.4-1.7l2.1-.5v.5c.1.3.2.4.4.6.3.2.8.2 1.2.1.5-.1.8-.3.9-.6.1-.2.2-.5.1-.7 0-.2-.1-.3-.2-.4l1.9-.4c.9-.2 1.5.3 2 .9.9.7 2.2 2.7 3 3.9Z" fill="#B8B8B8"/><path d="M132 160.799c0 .1.2.1.3.2.4 1.7 1-.3 1.9-.1 2 .4 2.1-.6 3.2-.6 1.3-.1 2.6.5 2.5-.5 0-.6 0-.7.1-.7 0 0-1.7-3.6-5.1-2.7-2.6.5-2.8 3.5-2.9 4.4Z" fill="#B8B8B8"/><path d="M147 161.1c.7 3 0 6.1-1.7 8.4-1.4 2-3.6 3.5-6.1 4.1-2.6.6-5.1.2-7.3-1-2.5-1.4-4.5-3.8-5.2-6.8-1.3-5.6 2.2-11.2 7.9-12.5 5.5-1.3 11.1 2.2 12.4 7.8Z" stroke="#0C296E" stroke-width=".5" stroke-miterlimit="10" stroke-linecap="round" stroke-linejoin="round"/><path d="m162.3 96.7-19.3 4.4c-1.8.4-3.6-.7-4-2.5-.4-1.8.7-3.6 2.5-4l19.3-4.4c1.8-.4 3.6.7 4 2.5.4 1.8-.7 3.6-2.5 4Z" fill="#fff" stroke="#0C296E" stroke-width=".5" stroke-miterlimit="10" stroke-linecap="round" stroke-linejoin="round"/><path d="M143.3 99.7a2.1 2.1 0 1 0 0-4.2 2.1 2.1 0 0 0 0 4.2Z" fill="#00D6B9"/><path d="m169.5 128.1-19.3 4.4c-1.8.4-3.6-.7-4-2.5-.4-1.8.7-3.6 2.5-4l19.3-4.4c1.8-.4 3.6.7 4 2.5.4 1.8-.8 3.6-2.5 4Z" fill="#fff" stroke="#0C296E" stroke-width=".5" stroke-miterlimit="10" stroke-linecap="round" stroke-linejoin="round"/><path d="M149.9 131.3a2.1 2.1 0 1 0 0-4.2 2.1 2.1 0 0 0 0 4.2Z" fill="#00D6B9"/><path d="m176.6 159.5-19.3 4.4c-1.8.4-3.6-.7-4-2.5-.4-1.8.7-3.6 2.5-4l19.3-4.4c1.8-.4 3.6.7 4 2.5.4 1.8-.7 3.6-2.5 4Z" fill="#fff" stroke="#0C296E" stroke-width=".5" stroke-miterlimit="10" stroke-linecap="round" stroke-linejoin="round"/><path d="M157 162.6a2.1 2.1 0 1 0 0-4.2 2.1 2.1 0 0 0 0 4.2Z" fill="#00D6B9"/><path d="m130.614 133.252-2.73.623 1.136 4.972 2.729-.623-1.135-4.972ZM133.081 131.56a1.3 1.3 0 1 0-.579-2.535 1.3 1.3 0 0 0 .579 2.535ZM124.701 133.561a1.3 1.3 0 1 0-.579-2.535 1.3 1.3 0 0 0 .579 2.535Z" fill="#B8B8B8"/><path d="M128.6 134.6a4 4 0 1 0 0-8 4 4 0 0 0 0 8ZM137.8 140c-1.4 2-3.6 3.5-6.1 4.1-2.6.6-5.1.2-7.3-1 .2-1.5.4-3.9.6-4.8.2-.8.5-1.5 1.4-1.7l2.1-.5v.5c.1.3.2.4.4.6.3.2.8.2 1.2.1.5-.1.8-.3.9-.6.1-.2.2-.5.1-.7 0-.2-.1-.3-.2-.4l1.9-.4c.9-.2 1.5.3 2 .9.9.7 2.2 2.7 3 3.9Z" fill="#B8B8B8"/><path d="M139.5 131.5c.7 3 0 6.1-1.7 8.4-1.4 2-3.6 3.5-6.1 4.1-2.6.6-5.1.2-7.3-1-2.5-1.4-4.5-3.8-5.2-6.8-1.3-5.6 2.2-11.2 7.9-12.5 5.7-1.3 11.1 2.2 12.4 7.8Z" stroke="#0C296E" stroke-width=".5" stroke-miterlimit="10" stroke-linecap="round" stroke-linejoin="round"/><path d="M126.2 129.6c1.2.4 2.5-.2 2-.6 0 0 1.8 0 3.1-.3 1.6-.5 1.4-2.1-.1-2.2-1.5-.1-3.8-1.5-6.2.1-1.4.9-2.2 3-1.5 4.8 0 0 1.1-.8 1.4.4.3 1.2 1.3-2.2 1.3-2.2Z" fill="#B8B8B8"/><path opacity=".15" d="M208.8 111.7c10.272 0 18.6-8.328 18.6-18.6 0-10.272-8.328-18.6-18.6-18.6-10.273 0-18.6 8.328-18.6 18.6 0 10.272 8.327 18.6 18.6 18.6Z" fill="#FFFCFD"/><path d="M206.8 110c9.444 0 17.1-7.656 17.1-17.1 0-9.444-7.656-17.1-17.1-17.1-9.444 0-17.1 7.656-17.1 17.1 0 9.444 7.656 17.1 17.1 17.1Z" fill="#FFC60A"/><path d="m214.254 89.975-15.443 3.34.55 2.542 15.443-3.34-.55-2.542Z" fill="#fff"/><path d="m206.408 84.92-2.541.55 3.34 15.443 2.541-.55-3.34-15.443Z" fill="#fff"/><path d="m275.8 219.499-73.3-16c-1.5-.3-2.4-1.8-2.1-3.2l28.3-129.3c.3-1.5 1.8-2.4 3.2-2.1l73.3 16c1.5.3 2.4 1.8 2.1 3.2L279 217.4c-.3 1.5-1.8 2.4-3.2 2.1Z" fill="#fff" stroke="#0C296E" stroke-width=".5" stroke-miterlimit="10"/><path d="m206 196.2 26-118.8c.3-1.5 1.9-2.5 3.4-2.2l64.1 14c1.5.3 2.5 1.9 2.2 3.4l-26 118.8c-.3 1.5-1.9 2.5-3.4 2.2l-64.1-14c-1.6-.3-2.5-1.9-2.2-3.4Z" fill="#fff" stroke="#0C296E" stroke-width=".5" stroke-miterlimit="10"/><path d="m283.3 87.199-31.1-6.8c-1.5-.3-2.4-1.8-2.1-3.3l.8-3.8 36.5 8-.8 3.8c-.3 1.4-1.8 2.4-3.3 2.1Z" fill="#fff" stroke="#0C296E" stroke-width=".5" stroke-miterlimit="10"/><path d="m279.7 84.1-19.2-4.2c-.4-.1-.7-.5-.6-.9l.2-.7c.1-.4.5-.7.9-.6l19.2 4.2c.4.1.7.5.6.9l-.2.7c0 .4-.5.7-.9.6ZM257.3 78.999a1 1 0 1 0 0-2 1 1 0 0 0 0 2Z" fill="#fff" stroke="#0C296E" stroke-width=".5" stroke-miterlimit="10"/><path d="m277.3 203.099-1.5 7.7c-.8 3-2.8 3.2-5.1 2.7l-18.8-4.4-8.7-17.5c-9.3-3.9-16.4-9.2-21.4-15-7.2-8.2-10-17.3-8.7-24.1 0-.1 0-.3.1-.4.3-1.4.7-2.7 1.3-3.9 1.1-2.3 2.6-4.3 4.3-6 .9-.9 1.8-1.7 2.8-2.4 3.4-2.5 6.9-4 9.2-4.8 1.5-.5 2.4-.7 2.4-.7s-9.3-15.3-13.3-27.7c-2.7-8.5-.4-11 1.3-11.7.7-.3 1.6 0 2 .7l27.2 43.8 6.5 3.2c.3.1.5.4.6.7l10 36.7 9.8 23.1Z" fill="#FFFCFD" stroke="#0C296E" stroke-width=".5" stroke-miterlimit="10"/><path d="M237.9 170.299c-1.3 1.1-3.9.8-4.7 1.2-1.7.7-12.2-23.6-12.2-23.6l-2.2-5.7c.9-.9 1.8-1.7 2.8-2.4 3.4-2.5 6.9-4 9.2-4.8 2.1 5.1 8.7 16.8 9.7 25.9.6 5.6-1.4 8.3-2.6 9.4Z" fill="#FFFCFD" stroke="#0C296E" stroke-width=".5" stroke-miterlimit="10"/><path d="M228.6 173.599c-.1 0-.7-.8-.8-.8-5.9-3-10.9-13.5-14.7-20.4 0-.1 0-.3.1-.4.3-1.4.7-2.7 1.3-3.9 1.1-2.3 2.6-4.3 4.3-6 .9-.9 1.8-1.7 2.8-2.4l15.6 30.7c.2.4.3.9.2 1.3-.2 1.8-1.6 5.5-8.8 1.9Z" fill="#FFFCFD" stroke="#0C296E" stroke-width=".5" stroke-miterlimit="10"/><path d="M221.8 176.499c-7.2-8.2-10-17.3-8.7-24.1 0-.1 0-.3.1-.4.3-1.4.7-2.7 1.3-3.9.9 1.3 12.6 19.4 14.6 24 .2.4.3.6.3.8.4 2.8-1.8 5.8-7.6 3.6Z" fill="#FFFCFD" stroke="#0C296E" stroke-width=".677" stroke-miterlimit="10"/><path d="m250.4 139.299-20.5-4.5c-1.2-.3-2.4.6-2.5 1.8-.2 2.3.7 6 7.1 9.4 2.7 1.4 11.3 4.7 11.3 4.7s-2 4.9 3.2 17" fill="#FFFCFD"/><path d="m250.4 139.299-20.5-4.5c-1.2-.3-2.4.6-2.5 1.8-.2 2.3.7 6 7.1 9.4 2.7 1.4 11.3 4.7 11.3 4.7s-2 4.9 3.2 17" stroke="#0C296E" stroke-width=".5" stroke-miterlimit="10" stroke-linecap="round"/><path d="M256.9 57.8a2.1 2.1 0 1 0 0-4.2 2.1 2.1 0 0 0 0 4.2ZM96.8 151.2a2.1 2.1 0 1 0 0-4.2 2.1 2.1 0 0 0 0 4.2ZM182.2 209.999a1.9 1.9 0 1 0 0-3.8 1.9 1.9 0 0 0 0 3.8ZM300.6 188a2.2 2.2 0 1 0 0-4.4 2.2 2.2 0 0 0 0 4.4Z" fill="#fff" stroke="#0C296E" stroke-width=".5" stroke-miterlimit="10"/><path d="m136 212.6-.7-2c0-.1-.1-.2-.2-.2l-2-.7c-.3-.1-.3-.6 0-.7l2-.7c.1 0 .2-.1.2-.2l.7-2c.1-.3.6-.3.7 0l.7 2c0 .1.1.2.2.2l2 .7c.3.1.3.6 0 .7l-2 .7c-.1 0-.2.1-.2.2l-.7 2c-.1.4-.6.4-.7 0ZM191.5 69l-.7-2c0-.1-.1-.2-.2-.2l-2-.7c-.3-.1-.3-.6 0-.7l2-.7c.1 0 .2-.1.2-.2l.7-2c.1-.3.6-.3.7 0l.7 2c0 .1.1.2.2.2l2 .7c.3.1.3.6 0 .7l-2 .7c-.1 0-.2.1-.2.2l-.7 2c-.1.3-.6.3-.7 0Z" fill="#FFC60A"/><path d="M124.1 206.7c.2-.7.3-1.4.2-2.1-.2-2.6-2.1-4.8-4.6-5.5-.9-.2-1.7-.2-2.5-.1-.4-2.7-2.8-4.7-5.7-4.7-3 0-5.5 2.2-5.7 5.1-.6-.1-1.2-.1-1.8 0-2.8.4-5 2.7-5.2 5.6 0 .5 0 1 .1 1.4.2 1.4 1.4 2.4 2.8 2.4h19.7c1.2-.1 2.4-.9 2.7-2.1Z" fill="#00D6B9"/></svg>