<svg viewBox="0 0 400 300" fill="none" xmlns="http://www.w3.org/2000/svg"><path d="M221.9 113.101H198v2.2h23.9v-2.2Z" fill="#fff"/><path d="M289 113.3v56.4c-13.6-6-43.1-10.4-78.6-11.4v-56.5c35.6 1.1 65.1 5.5 78.6 11.5Z" fill="#00D6B9"/><path d="M282.8 116.8v47.6c-11.5-5-36.4-8.8-66.4-9.6v-47.7c30.1.9 55.1 4.6 66.4 9.7Z" stroke="#0C296E" stroke-width=".5" stroke-miterlimit="10" stroke-linecap="round" stroke-linejoin="round" stroke-dasharray="2.42 2.42"/><path d="M252 145.4h-4.7l-1.1-25.7c0-1.9 1.5-3.4 3.4-3.4s3.4 1.5 3.4 3.4l-1 25.7ZM249.7 155.299a3.2 3.2 0 1 0 0-6.4 3.2 3.2 0 0 0 0 6.4Z" fill="#fff"/><path d="M193.3 116.7h-12.5v18.2h12.5v-18.2ZM210 109.5a6 6 0 1 0 0-12 6 6 0 0 0 0 12ZM164.4 109.5a6 6 0 1 0 0-12 6 6 0 0 0 0 12Z" fill="#fff" stroke="#0C296E" stroke-width=".5" stroke-miterlimit="10"/><path d="M187.8 121.501c10.88 0 19.7-8.82 19.7-19.7 0-10.88-8.82-19.7-19.7-19.7-10.88 0-19.7 8.82-19.7 19.7 0 10.88 8.82 19.7 19.7 19.7Z" fill="#fff" stroke="#0C296E" stroke-width=".5" stroke-miterlimit="10"/><path d="M165.1 97.4s2.7-22.1 22.9-21.6c18.9.5 22.1 17.7 22.9 21.8 0 0-6.3 6.1-15.3-2.5 0 0-7.2 9.5-16.4-.2-.1.1-6.1 10.1-14.1 2.5Z" fill="#0C296E"/><path d="m154.9 115.3 13.7-18.7 7.8-8.4c.3-.4.9-.3 1.2.1.3.5.5 1.3.2 2.4-.7 2.1-3.7 5.3-3.7 5.3l2-.6c1.9-.4 3.4.1 4.6 1.1.1 0 .1.1.2.2l1 1c.9 1.2 1.2 2.8.5 3.9l-.1-.2-3.8-2.1-5.4 1.5 2.7 12.8s4.4-2.4 6.4-2.1c1.2.1.4 2.4-2.2 3.7-1.2.6-7.3 3-8.7 3.3l-10 4.3-6.6 3.5.2-11Z" fill="#fff" stroke="#0C296E" stroke-width=".5" stroke-miterlimit="10"/><path d="m224.9 115.2-13.7-18.7-7.8-8.4c-.3-.4-.9-.3-1.2.1-.3.5-.5 1.3-.2 2.4.7 2.1 3.7 5.3 3.7 5.3l-2-.6c-1.9-.4-3.4.1-4.6 1.1-.1 0-.1.1-.2.2l-1 1c-.9 1.2-1.2 2.8-.5 3.9l.1-.2 3.8-2.1 5.4 1.5-2.7 12.8s-4.4-2.4-6.4-2.1c-1.2.1-.4 2.4 2.2 3.7 1.2.6 7.3 3 8.7 3.3l10 4.3 6.6 3.5-.2-11Z" fill="#fff" stroke="#000" stroke-width=".5" stroke-miterlimit="10" stroke-linecap="round" stroke-linejoin="round"/><path d="m193.6 106.7-3.3-.8c-1.6-.4-3.2-.4-4.8.1l-2.7.8v-3l2.7-.8c1.6-.4 3.2-.5 4.8-.1l3.4.8v3h-.1Z" fill="#FFC60A"/><path d="M200.2 113.7a8.4 8.4 0 1 0 0-16.8 8.4 8.4 0 1 0 0 16.8Z" fill="#FFC60A"/><path d="M206.7 105.301c0 3.6-2.9 6.5-6.5 6.5-1.1 0-2.2-.3-3.1-.8-.5-.3-.9-.6-1.3-.9l-.7-.7c-.6-.7-1-1.6-1.3-2.5-.1-.5-.2-1-.2-1.6 0-3.6 2.9-6.5 6.5-6.5.6 0 1.1.1 1.7.2.9.2 1.6.6 2.3 1.1.3.3.6.5.9.8.3.3.6.7.8 1.1.6 1 .9 2.1.9 3.3Z" fill="#FFE89C"/><path d="m204.1 100.1-9 9.2h-.1c-.6-.7-1-1.6-1.3-2.5l8-7.9c1 .3 1.8.7 2.4 1.2ZM205.8 102.1 197 111c-.5-.3-.9-.6-1.3-.9l9.3-9.1c.3.3.6.7.8 1.1Z" fill="#fff"/><path d="M175.7 113.7a8.4 8.4 0 1 0 0-16.8 8.4 8.4 0 1 0 0 16.8Z" fill="#FFC60A"/><path d="M175.7 111.801a6.5 6.5 0 1 0 0-13 6.5 6.5 0 0 0 0 13Z" fill="#FFE89C"/><path d="M175.7 113.7a8.4 8.4 0 1 0 0-16.8 8.4 8.4 0 1 0 0 16.8Z" fill="#FFC60A"/><path d="M182.2 105.301c0 3.6-2.9 6.5-6.5 6.5-1.1 0-2.2-.3-3.1-.8-.5-.3-.9-.6-1.3-.9l-.7-.7c-.6-.7-1-1.6-1.3-2.5-.1-.5-.2-1-.2-1.6 0-3.6 2.9-6.5 6.5-6.5.6 0 1.1.1 1.7.2.9.2 1.6.6 2.3 1.1.3.3.6.5.9.8.3.3.6.7.8 1.1.6 1.1.9 2.2.9 3.3Z" fill="#FFE89C"/><path d="m179.7 100.2-9 9.2h-.1c-.6-.7-1-1.6-1.3-2.5l8-7.9c.9.2 1.7.6 2.4 1.2ZM181.4 102.1l-8.8 8.9c-.5-.3-.9-.6-1.3-.9l9.3-9.1c.3.3.6.7.8 1.1Z" fill="#fff"/><path d="M180 130.6c2.4 1.8 7.9 4.5 14.1 0 1.2-.9 2.7-1.2 4.2-.8 3.9.9 11.7 3 18.7 6.8 1.1.6 2.4-.5 2-1.7l-4.1-12.1c-.1-.2 0-.5.2-.7l9.3-9.3c.3-.3.7-.2 1 .1l16.2 21.4c2.9 3.8 3 9.1.3 13.1L226.5 163l-7.4-.2-.8 19.5-57.2-.8-.3-18.7-7.7-1.7-15.2-15.3c-3.1-4.3-2.8-10.3.7-14.3l16-17.9c.3-.3.7-.3 1 0l7.9 9.9c.2.2.2.5 0 .8l-6.1 9c-.8 1.1.4 2.6 1.7 2.1 4.3-1.8 11.1-4.4 17.4-5.4 1.1-.5 2.5-.2 3.5.6Z" fill="#fff" stroke="#0C296E" stroke-width=".5" stroke-miterlimit="10"/><path d="M188.1 74.2c6.904 0 12.5-5.596 12.5-12.5 0-6.903-5.596-12.5-12.5-12.5s-12.5 5.597-12.5 12.5c0 6.904 5.596 12.5 12.5 12.5Z" fill="#0C296E"/><path d="M184.6 59.4c0-1.9 1.5-3.4 3.3-3.4 1.8 0 3.3 1.5 3.3 3.3 0 1.5-.9 2.7-2.2 3.2-.6.2-1.1.8-1 1.5v.1" stroke="#fff" stroke-width="1.736" stroke-miterlimit="10" stroke-linecap="round" stroke-linejoin="round"/><path d="M187.9 67.9a1.1 1.1 0 1 0 0-2.2 1.1 1.1 0 0 0 0 2.2Z" fill="#FFFCFD"/><path d="m224.5 65.8-2.8 3.7M227 69.1l-3.9 2.4M151.8 65.8l2.8 3.7M149.3 69.1l3.9 2.4" stroke="#0C296E" stroke-width=".5" stroke-miterlimit="10" stroke-linecap="round" stroke-linejoin="round"/><path d="M224.9 159v57.4c-12 1.2-25.4 1.8-39.6 1.8-31 0-58.4-3.2-75.1-8v-58.8c17.7 5.2 48.3 8.6 83 8.6 11 0 21.7-.3 31.7-1Z" fill="#FFC60A"/><path d="M214.7 164.601v47.2c-9.9 1-20.9 1.5-32.6 1.5-25.5 0-48.1-2.6-61.8-6.6v-48.4c14.6 4.3 39.7 7.1 68.3 7.1 9.1 0 17.9-.3 26.1-.8Z" stroke="#0C296E" stroke-width=".5" stroke-miterlimit="10" stroke-linecap="round" stroke-linejoin="round" stroke-dasharray="2.42 2.42"/><path d="M169.8 198.8h-4.7l-1.1-25.7c0-1.9 1.5-3.4 3.4-3.4s3.4 1.5 3.4 3.4l-1 25.7ZM167.5 208.7a3.2 3.2 0 1 0 0-6.4 3.2 3.2 0 0 0 0 6.4Z" fill="#fff"/><path d="M234.1 186c13.8 4.5 44-2.4 37.4-12.6-5.4-8.3-20.4 3-9.5 12.6 10.9 9.6 27.9 7.1 27.9 7.1" stroke="#0C296E" stroke-width=".5" stroke-miterlimit="10" stroke-dasharray="2.42 2.42"/><path d="M120.9 114.501a2.1 2.1 0 1 0 0-4.2 2.1 2.1 0 0 0 0 4.2ZM251.2 175.1a1.6 1.6 0 1 0 0-3.2 1.6 1.6 0 0 0 0 3.2ZM265.8 95.1l-.7-3.5 3.3 1.1-2.6 2.4ZM238 197.3l-1.9 2.4-1.1-2.8 3 .4ZM127.5 140.6l-2 3.1-1.7-3.3 3.7.2Z" fill="#fff" stroke="#0C296E" stroke-width=".5" stroke-miterlimit="10"/><path d="M149.394 237.455v1.2h5.196v-1.2h-5.196Zm2.212-3.258v15.758h1.183v-15.758h-1.183Zm-.034 4.029c-.412 2.35-1.44 5.282-2.469 6.774.223.308.531.874.669 1.234 1.097-1.697 2.109-5.041 2.589-7.733l-.789-.275Zm1.166 1.081-.634.48c.428.686 1.509 2.761 1.852 3.618l.771-.926c-.274-.514-1.629-2.692-1.989-3.172Zm7.048-4.544-.943.617c1.268 1.92 3.6 4.167 5.607 5.504.137-.343.411-.874.668-1.166-1.903-1.114-4.201-3.189-5.332-4.955Zm-.549-.686c-1.149 2.435-3.19 4.595-5.35 5.933.223.24.617.789.754 1.046 2.23-1.526 4.407-3.91 5.728-6.568l-1.132-.411Zm-2.658 5.435v1.132h5.813v-1.132h-5.813Zm-1.235 3.001c.498 1.321.961 3.035 1.115 4.15l1.063-.292c-.171-1.114-.651-2.812-1.166-4.115l-1.012.257Zm3.327-.463c.309 1.303.617 3.001.686 4.116l1.08-.172c-.103-1.114-.411-2.778-.754-4.098l-1.012.154Zm4.321-.137c-.634 1.903-1.8 4.664-2.726 6.293l.926.309c.96-1.612 2.109-4.253 2.932-6.31l-1.132-.292ZM154.418 248v1.166h10.22V248h-10.22Zm16.273-1.8c-1.011 1.012-2.657 1.989-4.166 2.641.308.205.771.651.994.874 1.475-.737 3.224-1.886 4.39-3.069l-1.218-.446Zm9.037-.669c.394.326.755.635 1.012.909l.909-.772c-.961-.908-2.83-2.229-4.356-3.103l-.823.668a31.38 31.38 0 0 1 1.989 1.338c-1.938.034-3.909.069-5.727.086 1.715-1.081 3.601-2.418 5.076-3.618l-1.166-.618c-.944.858-2.281 1.886-3.636 2.83-.428-.343-1.011-.721-1.594-1.081.891-.634 1.886-1.492 2.743-2.28l-.531-.258h6.721v2.092h1.252v-3.189h-6.739v-1.646h6.585v-1.132h-6.585v-1.509h-1.252v1.509h-6.533v1.132h6.533v1.646h-6.584v3.189h1.2v-2.092h4.476a21.013 21.013 0 0 1-2.23 2.007c-.291-.155-.6-.309-.874-.446l-.84.72c1.097.549 2.383 1.355 3.223 2.023-.394.258-.788.515-1.183.738-1.474.017-2.812.017-3.909.017l.068 1.183a888.23 888.23 0 0 0 6.671-.154v4.218h1.234v-4.252l4.87-.155Zm-3.224 1.355c1.509.771 3.344 1.972 4.219 2.795l1.063-.772c-.978-.84-2.847-1.972-4.304-2.675l-.978.652Zm7.425-1.423c0-.275.892-.686.892-.686v-.035c1.715-1.629 3.464-3.909 4.921-6.207l-1.166-.72c-1.235 2.298-3.121 4.664-3.738 5.264-.549.617-.96 1.046-1.355 1.115.155.343.378.994.446 1.269Zm0 0c.395-.223 1.012-.378 5.813-1.252a7.43 7.43 0 0 1-.086-1.115l-5.11.84-.685.446.068 1.081Zm-.12-4.167c0-.292.875-.72.875-.72v-.035c1.166-1.474 2.383-3.618 3.275-5.693l-1.303-.531c-.703 1.989-1.938 4.115-2.315 4.664-.36.566-.669.943-.995 1.029.172.343.377.994.463 1.286Zm0 0c.309-.155.84-.257 4.133-.618 0-.257.034-.754.103-1.08l-3.619.326-.651.394.034.978Zm-.36 6.413.223 1.32c1.698-.394 3.978-.857 6.139-1.354l-.103-1.201c-2.298.48-4.681.961-6.259 1.235Zm6.396-11.214v1.251h9.157v-1.251h-9.157Zm.429 3.909v1.235h8.436v-1.235h-8.436Zm1.131 7.648v1.183h6.225v-1.183h-6.225Zm2.384-13.855v6.842h1.337v-6.842h-1.337Zm-3.069 9.191v6.584h1.251v-5.401h5.024v5.333h1.304v-6.516h-7.579Zm13.34-2.641v-1.766h3.858v1.766h-3.858Zm0-4.561h3.858v1.749h-3.858v-1.749Zm9.071 1.749h-3.892v-1.749h3.892v1.749Zm0 2.812h-3.892v-1.766h3.892v1.766Zm2.915 3.721v-1.183h-6.807v-1.44h5.247v-6.774h-11.712v6.774h5.144v1.44h-6.807v1.183h5.744c-1.509 1.629-3.944 3.104-6.173 3.824.275.257.686.754.858 1.046 2.229-.84 4.732-2.469 6.378-4.338v4.921h1.321v-5.007c1.68 1.818 4.201 3.481 6.379 4.355.188-.308.583-.806.874-1.063-2.16-.72-4.613-2.16-6.19-3.738h5.744Zm2.487-6.139v1.286h13.237v-1.286h-13.237Zm12.706 0v.275c-.223 6.584-.497 9.122-1.046 9.671-.206.206-.395.257-.755.257-.428 0-1.509 0-2.657-.12.24.394.411.96.445 1.337 1.046.069 2.144.086 2.744.035.617-.052 1.029-.206 1.406-.686.686-.789.926-3.224 1.183-10.1.017-.189.017-.669.017-.669h-1.337Zm-7.065-4.098v2.041c0 3.549-.36 8.796-6.104 12.517.325.223.806.652 1.011.96 5.985-3.978 6.396-9.636 6.396-13.477v-2.041h-1.303Zm-4.27.926c.686.806 1.475 1.921 1.801 2.606l1.166-.548c-.36-.703-1.166-1.784-1.852-2.538l-1.115.48Zm5.779 7.099c.875 1.029 1.903 2.469 2.332 3.378l1.132-.6c-.446-.909-1.492-2.298-2.401-3.31l-1.063.532Zm18.399-5.076v3.396c0 1.269.36 1.594 1.852 1.594h2.452c1.149 0 1.509-.411 1.629-2.023-.326-.086-.857-.274-1.097-.463-.052 1.2-.155 1.389-.652 1.389h-2.195c-.634 0-.737-.069-.737-.497v-3.396h3.464v1.904h1.286v-3.052h-6.619v-1.784h-1.286v1.784h-6.482v3.429h1.252v-2.281h3.309c-.291 2.504-1.097 3.927-4.767 4.647.258.258.583.755.703 1.064 4.03-.909 5.042-2.675 5.385-5.711h2.503Zm-.617 11.043v-3.446h5.419v-1.149h-11.729v1.149h5.024v3.446h-6.808v1.166h14.987v-1.166h-6.893Z" fill="#000"/></svg>