<svg viewBox="0 0 400 300" fill="none" xmlns="http://www.w3.org/2000/svg"><path d="M159.322 223.858v13.965h1.078v-12.919h2.352v-1.046h-3.43Zm3.25 0v.115a81.45 81.45 0 0 1-1.65 5.292c1.242 1.617 1.764 2.646 1.764 3.658 0 .572-.098 1.16-.408 1.372a1.386 1.386 0 0 1-.572.147c-.31 0-.784 0-1.257-.049.196.327.31.784.326 1.062.458.033.964.033 1.34 0 .343-.049.686-.147.914-.327.507-.375.735-1.225.735-2.172 0-1.094-.539-2.254-1.78-3.838.637-1.732 1.258-3.447 1.715-4.884l-.8-.425-.164.049h-.163Zm-13.361 9.686c0-.245.817-.621.817-.621v-.016c1.307-1.601 2.597-3.838 3.61-6.011l-1.046-.571c-.849 2.172-2.254 4.459-2.695 5.047-.424.604-.735 1.029-1.061 1.078.147.31.326.865.375 1.094Zm0 0c.294-.18.784-.343 4.067-1.094a6.272 6.272 0 0 1-.098-1.013l-3.495.735-.539.392.065.98Zm-.098-3.92c0-.245.719-.653.719-.653v-.017c.931-1.502 1.878-3.675 2.515-5.716l-1.176-.409c-.457 1.96-1.388 4.084-1.666 4.639-.277.555-.522.947-.8 1.013.147.326.343.898.408 1.143Zm0 0c.245-.131.686-.229 3.071-.539 0-.261.033-.702.098-1.013l-2.63.262-.571.375.032.915Zm-.343 6.027.278 1.143c1.274-.473 2.875-1.11 4.426-1.698l-.196-1.013c-1.682.588-3.364 1.192-4.508 1.568Zm5.243-10.502v1.11h4.688v-1.11h-4.688Zm.18 3.479v1.11h4.198v-1.11h-4.198Zm1.682-5.75v6.795c0 2.907-.261 5.488-2.368 7.432.278.163.719.522.915.751 2.27-2.123 2.531-5.014 2.531-8.167v-6.811h-1.078Zm-2.27 9.261v1.111h5.276v-1.111h-5.276Zm13.426-6.272h11.123v2.385h1.241v-3.528h-6.174v-1.862h-1.257v1.862h-6.125v3.528h1.192v-2.385Zm6.19 6.942h4.835v-1.127h-4.835v-2.711h4.165v-1.144h-9.457v1.144h4.051v6.843c-1.339-.506-2.385-1.437-3.005-3.152.163-.686.294-1.405.392-2.172l-1.242-.115c-.359 2.924-1.241 5.243-3.054 6.648.294.18.8.604.996.817 1.062-.931 1.862-2.14 2.434-3.643 1.486 2.761 3.92 3.349 7.301 3.349h3.789c.049-.36.262-.931.458-1.225-.784.016-3.594.016-4.182.016-.947 0-1.845-.049-2.646-.196v-3.332Zm16.415-1.176v-2.711h4.394v2.711h-4.394Zm-5.177 0a21.9 21.9 0 0 0 .065-1.748v-.963h3.904v2.711h-3.969Zm3.969-6.468v2.613h-3.904v-2.613h3.904Zm5.602 2.613h-4.394v-2.613h4.394v2.613Zm1.192-3.773h-11.89v5.88c0 2.271-.164 5.145-1.96 7.171.261.147.751.555.931.8 1.241-1.388 1.796-3.25 2.041-5.063h4.084v4.818h1.208v-4.818h4.394v3.315c0 .311-.114.409-.441.425-.294 0-1.405.016-2.548-.033.163.327.359.85.408 1.176 1.536.017 2.483 0 3.038-.196.523-.212.735-.571.735-1.355v-12.12Zm4.655 1.323v3.561c0 2.466-.212 5.88-2.221 8.297.31.131.849.507 1.062.735 2.09-2.531 2.433-6.353 2.433-9.032v-3.561h-1.274Zm4.427-2.303c.343.768.767 1.797.947 2.45l1.241-.375c-.196-.637-.62-1.617-.996-2.385l-1.192.31Zm-3.626 2.303v1.16h8.999v5.504h1.242v-6.664h-10.241Zm0 4.443v1.143h9.669v-1.143h-9.669Zm23.34-5.39v12.25h1.242v-12.25h-1.242Zm-3.413 3.773v8.575h1.192v-8.575h-1.192Zm3.871 1.323v1.16h4.018v-1.16h-4.018Zm-4.721-5.423v1.144h9.049v-1.144h-9.049Zm-.571 11.973v1.159h9.963v-1.159h-9.963Zm-4.084-12.054c.898.751 2.009 1.813 2.532 2.515l.849-.866c-.539-.669-1.666-1.682-2.564-2.384l-.817.735Zm1.307 13.393c.245-.327.686-.67 3.463-2.858a7.094 7.094 0 0 1-.474-1.062l-2.94 2.238-.311.522.262 1.16Zm-2.156-9.441v1.193h3.022v-1.193h-3.022Zm2.156 9.441c0-.49 1.339-1.748 1.339-1.748v-7.693h-1.192v6.844c0 .866-.588 1.503-.915 1.764.229.196.621.604.768.833Zm17.787-14.455c-.866 2.466-2.303 4.9-3.822 6.484.212.278.572.899.686 1.193a18.68 18.68 0 0 0 1.503-1.911v9.065h1.159v-10.944a28.464 28.464 0 0 0 1.617-3.528l-1.143-.359Zm11.074 8.036h-4.426v-3.577h3.724v-1.192h-3.724v-3.12h-1.209v3.12h-2.172c.212-.735.392-1.503.539-2.271l-1.144-.245c-.375 2.107-1.045 4.231-2.009 5.57.311.147.817.441 1.046.621.441-.686.833-1.536 1.176-2.483h2.564v3.577h-4.655v1.192h4.655v5.635h1.209v-5.635h4.426v-1.192Z" fill="#000"/><path d="M164.7 88.4a6.2 6.2 0 1 0 0-12.4 6.2 6.2 0 0 0 0 12.4Z" fill="#FFC60A"/><path d="m305.3 99.4-22.9 62.5-8.4 22.9H169.4l-3.2-23.9-6.9-50.6 4.5-26H296l9.3 15.1Z" fill="#fff" stroke="#0C296E" stroke-width=".5" stroke-miterlimit="10" stroke-linecap="round" stroke-linejoin="round"/><path d="m282.4 161.9-8.4 22.9H169.4l-3.2-23.9 116.2 1Z" fill="#0C296E"/><path d="M269.4 100.4H124.2V189h145.2v-88.6Z" fill="#fff" stroke="#0C296E" stroke-width=".5" stroke-miterlimit="10" stroke-linecap="round" stroke-linejoin="round"/><path d="M193.7 121.601h-63.1v8.2h63.1v-8.2ZM193.7 140.501h-63.1v8.2h63.1v-8.2ZM168.2 159.4h-37.6v8.2h37.6v-8.2Z" fill="#A9DDF9"/><path d="M257.9 175.601h-54.1c-2.8 0-5.2-2.3-5.2-5.2v-54.1c0-2.8 2.3-5.2 5.2-5.2h54.1c2.8 0 5.2 2.3 5.2 5.2v54.1c0 2.9-2.3 5.2-5.2 5.2Z" fill="#FFC60A"/><path d="M230.9 143.301c6.627 0 12-5.373 12-12 0-6.628-5.373-12-12-12s-12 5.372-12 12c0 6.627 5.373 12 12 12ZM254 166.301h-46.2c0-11.2 10.4-20.3 23.1-20.3 12.7 0 23.1 9.1 23.1 20.3Z" fill="#fff"/><path d="M269.7 109.3c9.5 1.6 15.6 4.9 16.9 9.7 3.9 14.3-34.5 37.3-85.8 51.4-51.3 14.1-96 13.8-100-.6-2-7.2 6.7-16.5 22.2-25.8" stroke="#0C296E" stroke-width=".5" stroke-miterlimit="10" stroke-linecap="round" stroke-linejoin="round"/><path d="M271.5 105.3c.8.1 1.6.3 2.4.4" stroke="#0C296E" stroke-width=".5" stroke-linecap="round" stroke-linejoin="round"/><path d="M278.5 107c5.5 1.8 9 4.5 10 8.1 3.9 14.3-34.5 37.3-85.8 51.4-51.3 14-96 13.8-100-.6-1.8-6.5 3.9-13.9 16.6-22.2" stroke="#0C296E" stroke-width=".5" stroke-linecap="round" stroke-linejoin="round" stroke-dasharray="4.71 4.71"/><path d="M121.3 142.5c.7-.4 1.3-.8 2-1.2" stroke="#0C296E" stroke-width=".5" stroke-linecap="round" stroke-linejoin="round"/><path d="M129.8 210c12.095 0 21.9-9.805 21.9-21.9 0-12.095-9.805-21.9-21.9-21.9-12.095 0-21.9 9.805-21.9 21.9 0 12.095 9.805 21.9 21.9 21.9Z" fill="#0C296E"/><path d="M128.1 209.5c12.095 0 21.9-9.805 21.9-21.9 0-12.095-9.805-21.9-21.9-21.9-12.095 0-21.9 9.805-21.9 21.9 0 12.095 9.805 21.9 21.9 21.9Z" fill="#00D6B9"/><path d="m121.5 190.2-4.6-2.7c-2.5-1.4-3.4-4.7-1.9-7.2 1.4-2.5 4.7-3.4 7.2-1.9l5.9 3.4M131.9 184.199l6.9 3.8c2.5 1.4 3.4 4.7 1.9 7.2-1.4 2.5-4.7 3.4-7.2 1.9l-7-3.9" stroke="#fff" stroke-width="1.38" stroke-miterlimit="10" stroke-linecap="round" stroke-linejoin="round"/><path d="m133.1 191.5-11.4-6.3c-.4-.2-.5-.6-.3-1s.6-.5 1-.3l11.4 6.3c.4.2.5.6.3 1-.2.3-.7.5-1 .3Z" fill="#fff"/><path d="m93.4 176.399 5.3 4.8M88.9 187l7.9-1.4M99.5 189.699l-3.4 6.4" stroke="#0C296E" stroke-miterlimit="10" stroke-linecap="round" stroke-linejoin="round"/><path d="M296.5 160a2.6 2.6 0 1 0 0-5.2 2.6 2.6 0 0 0 0 5.2ZM287 163.999a1.8 1.8 0 1 0 .001-3.599 1.8 1.8 0 0 0-.001 3.599ZM110.7 109.2l-5.8-1.3 4-4.4 1.8 5.7ZM272.4 190.5l2.9 4.6 2.5-4.8-5.4.2Z" fill="#fff" stroke="#0C296E" stroke-width=".5" stroke-miterlimit="10"/><path d="m141.3 89.1-1.4.6M138 90.5l-1.3.5M138 87.8l.6 1.3M139.4 91l.5 1.4M119.7 124.5l-1.3.6M116.5 125.9l-1.4.5M116.5 123.2l.5 1.4M117.8 126.4l.6 1.4" stroke="#0C296E" stroke-width=".5" stroke-miterlimit="10" stroke-linecap="round" stroke-linejoin="round"/></svg>