<svg viewBox="0 0 400 300" fill="none" xmlns="http://www.w3.org/2000/svg"><path d="M182.573 227.51h-13.204v13.637h1.155v-12.53h3.193a49.37 49.37 0 0 1-.321 4.043 38.502 38.502 0 0 0-1.604-1.604l-.658.706c.69.641 1.396 1.411 2.069 2.198-.385 2.053-1.01 3.754-2.117 5.021.272.161.754.514.93.706.995-1.267 1.621-2.823 2.038-4.685.513.658.946 1.268 1.251 1.781l.722-.818c-.401-.642-1.011-1.46-1.717-2.278.257-1.524.385-3.209.482-5.07h3.144c-.048 1.348-.112 2.615-.24 3.786-.514-.529-1.027-1.059-1.541-1.524l-.657.706a33.38 33.38 0 0 1 2.021 2.15c-.369 2.182-1.011 3.963-2.198 5.262.257.161.754.53.931.722 1.075-1.299 1.732-2.952 2.15-4.925.609.77 1.139 1.492 1.492 2.102l.722-.851c-.45-.738-1.172-1.652-1.974-2.599.209-1.46.321-3.064.401-4.829h2.375v11.022c0 .273-.113.369-.385.369-.273.016-1.187.032-2.166-.016.16.305.353.834.417 1.139 1.348.016 2.15-.016 2.615-.192.497-.209.674-.578.674-1.3V227.51Zm2.439 9.53c0-.241.85-.626.85-.626v-.032c1.524-1.524 3.096-3.658 4.38-5.808l-1.075-.641c-1.091 2.15-2.792 4.347-3.321 4.909-.514.594-.883.995-1.236 1.059.145.305.337.898.402 1.139Zm0 0c.336-.209.882-.385 4.845-1.348a7.179 7.179 0 0 1-.032-1.043l-4.3.947-.594.417.081 1.027Zm-.113-3.85c0-.257.738-.642.738-.642v-.032c1.139-1.428 2.311-3.466 3.145-5.423l-1.155-.546c-.658 1.91-1.829 3.963-2.198 4.493-.353.529-.642.898-.931.978.145.321.337.915.401 1.172Zm0 0c.257-.129.722-.241 3.369-.594-.016-.225.033-.69.081-1.011l-2.904.305-.562.385.016.915Zm-.289 5.968.273 1.203c1.492-.465 3.466-1.059 5.343-1.652l-.193-1.043c-2.021.577-4.075 1.171-5.423 1.492Zm6.803-3.931v5.872h1.139v-4.797h4.557v4.781h1.155v-5.856h-6.851Zm.674 3.995v1.091h5.776v-1.091h-5.776Zm1.107-11.199-.546 1.107h5.311v-1.107h-4.765Zm4.38 0v.225c-1.236 2.984-4.332 5.038-7.621 6 .177.241.433.787.513 1.107 3.45-1.123 6.787-3.433 8.295-6.93l-.706-.45-.225.048h-.256Zm-4.476-1.748c-.69 1.813-1.861 3.561-3.177 4.684.241.241.626.722.77.963 1.38-1.299 2.679-3.273 3.514-5.326l-1.107-.321Zm-.353 2.904-.899.529c1.316 2.583 3.963 4.556 7.092 5.551.08-.321.272-.802.481-1.091-3-.802-5.519-2.615-6.674-4.989Zm14.68-1.573c-.209.835-.642 2.07-.995 2.84l.722.273c.385-.722.85-1.877 1.235-2.824l-.962-.289Zm-2.872 2.792c-.08-.754-.369-1.893-.738-2.76l-.786.257c.353.883.641 2.022.69 2.792l.834-.289Zm.577 7.573h.995v-3.931c.562.609 1.235 1.38 1.508 1.765l.69-.835c-.337-.321-1.717-1.588-2.198-1.989v-.61h2.262v-1.027h-2.262v-4.684h-.995v4.684h-2.294v1.027h2.134c-.562 1.412-1.524 2.936-2.423 3.755.161.256.401.689.514.962.754-.706 1.492-1.893 2.069-3.128v4.011Zm10.349-6.081h-5.311v-2.76c1.765-.352 3.706-.85 5.054-1.476l-.963-.85c-1.011.497-2.759.995-4.364 1.364l-.85-.273v5.583c0 1.573-.096 3.418-.818 5.07v-.208h-5.824v-11.231h-1.059v13.493h1.059v-1.204h5.391a6.813 6.813 0 0 1-.851 1.107c.289.145.706.546.851.819 2.101-2.23 2.374-5.471 2.374-7.83v-.481h2.391v8.166h1.123v-8.166h1.797v-1.123Zm6.481 1.38v-4.541h4.46v4.541h-4.46Zm9.241 0h-3.561v-4.541h3.064v-1.139h-13.172v1.139h3.225v3.851c0 .241 0 .449-.016.69h-3.802v1.155h3.754c-.225 2.166-1.043 4.316-3.706 5.952.288.193.722.61.946.883 2.936-1.846 3.754-4.332 3.979-6.835h4.508v6.786h1.22v-6.786h3.561v-1.155Z" fill="#000"/><path d="m166.1 77.6 1.5 2.9M174.7 74.2l-1.3 4.6M161.1 85.099l4.4-.6" stroke="#0C296E" stroke-width=".5" stroke-miterlimit="10" stroke-linecap="round" stroke-linejoin="round"/><path d="m150.4 209.8 4.7-3.7-.1 7-4.6-3.3ZM119.5 145.8l-3.5 3.1 6.9-.3-3.4-2.8ZM200.7 57.1l-2.5 3.4 5.5-.3-3-3.1Z" fill="#fff" stroke="#0C296E" stroke-width=".5" stroke-miterlimit="10" stroke-linecap="round" stroke-linejoin="round"/><path d="M294.5 112.199v2.7M294.5 117.299v2.6M290.6 116.1h2.7M295.7 116.1h2.6M117.6 174.1l.8 2.5M119.2 178.899l.8 2.5M115.1 178.9l2.6-.8M119.9 177.4l2.6-.9" stroke="#0C296E" stroke-width=".5" stroke-miterlimit="10" stroke-linecap="round" stroke-linejoin="round"/><path d="M193.5 69.3a1.3 1.3 0 1 0 0-2.6 1.3 1.3 0 0 0 0 2.6ZM293.2 139.399a2.1 2.1 0 1 0 0-4.2 2.1 2.1 0 0 0 0 4.2ZM199.9 207.4a2.2 2.2 0 1 0 0-4.4 2.2 2.2 0 0 0 0 4.4Z" fill="#fff" stroke="#0C296E" stroke-width=".5" stroke-miterlimit="10" stroke-linecap="round" stroke-linejoin="round"/><path d="m182.5 112.199-1.4 6.7-.2.2c-37.7 35.2-37.4 88.7-37.4 88.7h-18.7c-.4-51.8 23.6-85.2 37.7-100.3 5.8-6.2 9.9-9.3 9.9-9.3l.9 12.8 9.2 1.2Z" fill="#FFC60A"/><path d="m182.5 112.2-1.4 6.7-.2.2-2.5-3.7-12.6 2.6-3.4-10.6c5.8-6.2 9.9-9.3 9.9-9.3l.9 12.8 9.3 1.3Z" fill="#FF8D0A"/><path d="M273.5 62.9v19.2s-44.1-4.3-76.2 22.7c-.1 0-.1.1-.2.1l-4.3-6.2-15.8-5.2s3.4-3.1 9.8-7.3c15-9.9 46.1-26.1 86.7-23.3Z" fill="#fff" stroke="#0C296E" stroke-width=".5" stroke-miterlimit="10" stroke-linecap="round" stroke-linejoin="round"/><path d="m199.7 89.5-2.4 15.299c-.1 0-.1.1-.2.1l-4.3-6.2-15.8-5.2s3.4-3.1 9.8-7.3l12.9 3.3Z" fill="#0C296E"/><path d="M192.6 138.8S165 165.2 167 208.1h20.8s-5-29.1 22.4-56l-3-3.8-5.3 1.5-.5-10.1-8.8-.9Z" fill="#FFC60A"/><path d="M272.9 105.2v19.7s-21.9-6.3-46.4 12.8c-.1.1-.3.2-.4.3l-12.9-1.4-.6-5.5-8.1-5s3.3-3.3 9.3-7.4c11.4-7.6 32.5-18 59.1-13.5Z" fill="#fff" stroke="#0C296E" stroke-width=".5" stroke-miterlimit="10" stroke-linecap="round" stroke-linejoin="round"/><path d="M226.5 137.699c-.1.1-.3.2-.4.3l-12.9-1.4-.6-5.5-8.1-5s3.3-3.3 9.3-7.4l7.3 4.4-1.5 9.5 6.9 5.1Z" fill="#0C296E"/><path d="M228.7 163.4S209.4 182.2 210 208h18.1s1.2-16.9 11.4-26.7l-2-6.5-5.7.8-3.1-12.2Z" fill="#FFC60A"/><path d="M272.9 148.1v17.3s-17-3-31 12.6c-.5.5-.9 1-1.3 1.6l.2-7.7-4.2-.5 2.6-8.6-4.8-4.1s2.5-2.2 7.1-4.7c6.4-3.5 17.4-7.6 31.4-5.9Z" fill="#fff" stroke="#0C296E" stroke-width=".5" stroke-miterlimit="10" stroke-linecap="round" stroke-linejoin="round"/><path d="m241.1 169.8 3.3 1.8-2.6 6.4c-.5.5-.9 1-1.3 1.6l.2-7.7-4.2-.5 2.6-8.6-4.8-4.1s2.5-2.2 7.1-4.7l5.4 6.4-5.7 9.4ZM183.7 104.1l5-.3.3 6.8-7.2.2 1.9-6.7ZM191.8 105.2l2.8 1.1-2 4.4-.8-5.5ZM201.3 128l.9 5.1 3.9-1-4.8-4.1ZM207.7 140.8l.1 5.2 6.9-1.1-.5-3.7-6.5-.4Z" fill="#0C296E"/><path d="M231.6 163v3.5l4.7-2.5-4.7-1Z" fill="#0C296E"/><path d="m278.4 207.199-21.1.2c-5.1 0-9.3-4.1-9.3-9.3 0-4.7 3.5-8.6 8.1-9.2l2.8 6.5 4.3 1.1 2.9 5 12.3 5.7Z" fill="#FFC60A"/><path d="m277.6 187 .8 20.2-10.7-8.3.4-3.7-5.1-2.3 1.2-4.4-4.7-3.7c1-4 4.6-7 9-7 5-.1 9.1 4.1 9.1 9.2Z" fill="#fff" stroke="#0C296E" stroke-width=".5" stroke-miterlimit="10" stroke-linecap="round" stroke-linejoin="round"/><path d="m260 188.6-.5 2.6 1.8-1.6-1.3-1ZM263.8 194.899l2 .6-1.2 2.1-.7-1.3-.1-1.4ZM266.7 195.899l-.7 2.3 1.1-.6-.4-1.7Z" fill="#0C296E"/><path d="M137.8 121.7c.3-1 .4-2 .3-3-.3-3.7-3-6.9-6.6-7.8-1.3-.3-2.5-.3-3.6-.1-.6-3.8-4-6.8-8.1-6.8-4.3 0-7.8 3.2-8.2 7.2-.8-.1-1.7-.1-2.5 0-4 .6-7.1 3.9-7.4 7.9 0 .7 0 1.4.1 2 .3 2 2 3.4 4 3.4h28.1c1.8.2 3.4-1 3.9-2.8Z" fill="#00D6B9"/><path d="M115.8 116a1.1 1.1 0 1 0 0-2.2 1.1 1.1 0 0 0 0 2.2ZM124 116a1.1 1.1 0 1 0 0-2.2 1.1 1.1 0 0 0 0 2.2Z" fill="#fff"/><path d="M117 119.699c.8-1.1 3.8-2.8 6.4 0" stroke="#fff" stroke-width=".904" stroke-miterlimit="10" stroke-linecap="round" stroke-linejoin="round"/></svg>