<svg xmlns="http://www.w3.org/2000/svg" version="1.1" viewBox="0.00 0.00 300.00 300.00" width="300.00" height="300.00">
<path stroke="#d6d6d6" stroke-width="2.00" fill="none" stroke-linecap="butt" d="&#10;  M 181.61 162.53&#10;  C 188.96 152.01 195.92 140.29 199.94 127.95&#10;  Q 202.07 121.42 201.82 112.92&#10;  Q 201.19 91.11 189.50 73.77&#10;  C 184.22 65.95 176.69 59.36 168.48 55.37&#10;  Q 160.24 51.37 149.26 51.14&#10;  C 136.36 50.87 125.50 56.94 116.42 65.67&#10;  Q 114.02 67.97 112.03 70.96&#10;  C 107.63 77.60 103.21 84.25 100.97 92.14&#10;  Q 97.52 104.24 97.74 116.21&#10;  Q 97.87 123.17 100.09 129.98&#10;  C 104.02 141.98 110.79 153.87 118.34 165.10&#10;  C 121.55 169.87 122.63 173.82 121.52 179.28&#10;  Q 120.60 183.84 114.89 186.07&#10;  C 110.64 187.73 106.49 189.13 102.25 191.05&#10;  Q 83.22 199.66 64.97 207.65&#10;  Q 57.77 210.80 53.26 217.77&#10;  Q 50.89 221.44 50.35 225.79&#10;  C 49.17 235.45 50.67 245.28 60.63 249.31&#10;  C 65.72 251.37 73.38 250.75 79.45 250.78&#10;  Q 155.56 251.21 231.25 250.93&#10;  C 241.05 250.89 248.81 244.68 249.84 234.49&#10;  Q 251.23 220.71 241.91 211.81&#10;  C 238.23 208.29 233.38 206.45 228.70 204.79&#10;  Q 223.92 203.09 218.95 201.06&#10;  Q 206.14 195.81 194.00 191.45&#10;  Q 186.46 188.75 179.55 184.51&#10;  C 177.49 183.24 176.07 180.96 176.08 178.61&#10;  C 176.09 175.08 176.50 171.62 178.17 168.36&#10;  Q 179.89 164.99 181.61 162.53"/>
<path fill="#efefef" d="&#10;  M 0.00 0.00&#10;  L 300.00 0.00&#10;  L 300.00 300.00&#10;  L 0.00 300.00&#10;  L 0.00 0.00&#10;  Z&#10;  M 181.61 162.53&#10;  C 188.96 152.01 195.92 140.29 199.94 127.95&#10;  Q 202.07 121.42 201.82 112.92&#10;  Q 201.19 91.11 189.50 73.77&#10;  C 184.22 65.95 176.69 59.36 168.48 55.37&#10;  Q 160.24 51.37 149.26 51.14&#10;  C 136.36 50.87 125.50 56.94 116.42 65.67&#10;  Q 114.02 67.97 112.03 70.96&#10;  C 107.63 77.60 103.21 84.25 100.97 92.14&#10;  Q 97.52 104.24 97.74 116.21&#10;  Q 97.87 123.17 100.09 129.98&#10;  C 104.02 141.98 110.79 153.87 118.34 165.10&#10;  C 121.55 169.87 122.63 173.82 121.52 179.28&#10;  Q 120.60 183.84 114.89 186.07&#10;  C 110.64 187.73 106.49 189.13 102.25 191.05&#10;  Q 83.22 199.66 64.97 207.65&#10;  Q 57.77 210.80 53.26 217.77&#10;  Q 50.89 221.44 50.35 225.79&#10;  C 49.17 235.45 50.67 245.28 60.63 249.31&#10;  C 65.72 251.37 73.38 250.75 79.45 250.78&#10;  Q 155.56 251.21 231.25 250.93&#10;  C 241.05 250.89 248.81 244.68 249.84 234.49&#10;  Q 251.23 220.71 241.91 211.81&#10;  C 238.23 208.29 233.38 206.45 228.70 204.79&#10;  Q 223.92 203.09 218.95 201.06&#10;  Q 206.14 195.81 194.00 191.45&#10;  Q 186.46 188.75 179.55 184.51&#10;  C 177.49 183.24 176.07 180.96 176.08 178.61&#10;  C 176.09 175.08 176.50 171.62 178.17 168.36&#10;  Q 179.89 164.99 181.61 162.53&#10;  Z"/>
<path fill="#bdbdbd" d="&#10;  M 199.94 127.95&#10;  C 195.92 140.29 188.96 152.01 181.61 162.53&#10;  Q 179.89 164.99 178.17 168.36&#10;  C 176.50 171.62 176.09 175.08 176.08 178.61&#10;  C 176.07 180.96 177.49 183.24 179.55 184.51&#10;  Q 186.46 188.75 194.00 191.45&#10;  Q 206.14 195.81 218.95 201.06&#10;  Q 223.92 203.09 228.70 204.79&#10;  C 233.38 206.45 238.23 208.29 241.91 211.81&#10;  Q 251.23 220.71 249.84 234.49&#10;  C 248.81 244.68 241.05 250.89 231.25 250.93&#10;  Q 155.56 251.21 79.45 250.78&#10;  C 73.38 250.75 65.72 251.37 60.63 249.31&#10;  C 50.67 245.28 49.17 235.45 50.35 225.79&#10;  Q 50.89 221.44 53.26 217.77&#10;  Q 57.77 210.80 64.97 207.65&#10;  Q 83.22 199.66 102.25 191.05&#10;  C 106.49 189.13 110.64 187.73 114.89 186.07&#10;  Q 120.60 183.84 121.52 179.28&#10;  C 122.63 173.82 121.55 169.87 118.34 165.10&#10;  C 110.79 153.87 104.02 141.98 100.09 129.98&#10;  Q 97.87 123.17 97.74 116.21&#10;  Q 97.52 104.24 100.97 92.14&#10;  C 103.21 84.25 107.63 77.60 112.03 70.96&#10;  Q 114.02 67.97 116.42 65.67&#10;  C 125.50 56.94 136.36 50.87 149.26 51.14&#10;  Q 160.24 51.37 168.48 55.37&#10;  C 176.69 59.36 184.22 65.95 189.50 73.77&#10;  Q 201.19 91.11 201.82 112.92&#10;  Q 202.07 121.42 199.94 127.95&#10;  Z"/>
</svg>